<svg xmlns="http://www.w3.org/2000/svg" xmlns:xlink="http://www.w3.org/1999/xlink" width="1920" zoomAndPan="magnify" viewBox="0 0 1440 809.999993" height="1080" preserveAspectRatio="xMidYMid meet" version="1.0"><defs><clipPath id="14a0e1097d"><path d="M 30 511 L 204.429688 511 L 204.429688 810 L 30 810 Z M 30 511 " clip-rule="nonzero"/></clipPath><clipPath id="1138e90548"><path d="M 92 430.269531 L 173 430.269531 L 173 470 L 92 470 Z M 92 430.269531 " clip-rule="nonzero"/></clipPath><clipPath id="3d0eef80ad"><path d="M 0 165 L 143 165 L 143 352 L 0 352 Z M 0 165 " clip-rule="nonzero"/></clipPath><clipPath id="1b0a98391d"><path d="M 140.382812 38.328125 L 286.101562 199.800781 L 55.585938 407.820312 L -90.128906 246.351562 Z M 140.382812 38.328125 " clip-rule="nonzero"/></clipPath><clipPath id="128b95c14e"><path d="M 140.382812 38.328125 L 286.101562 199.800781 L 55.585938 407.820312 L -90.128906 246.351562 Z M 140.382812 38.328125 " clip-rule="nonzero"/></clipPath><clipPath id="8c6b40dda9"><path d="M 140.382812 38.328125 L 286.101562 199.800781 L 55.585938 407.820312 L -90.128906 246.351562 Z M 140.382812 38.328125 " clip-rule="nonzero"/></clipPath><clipPath id="d03b3f35ab"><path d="M 71 67 L 221 67 L 221 245 L 71 245 Z M 71 67 " clip-rule="nonzero"/></clipPath><clipPath id="08ea3d3bc2"><path d="M 140.382812 38.328125 L 286.101562 199.800781 L 55.585938 407.820312 L -90.128906 246.351562 Z M 140.382812 38.328125 " clip-rule="nonzero"/></clipPath><clipPath id="1cc060ae09"><path d="M 140.382812 38.328125 L 286.101562 199.800781 L 55.585938 407.820312 L -90.128906 246.351562 Z M 140.382812 38.328125 " clip-rule="nonzero"/></clipPath><clipPath id="687d423db2"><path d="M 140.382812 38.328125 L 286.101562 199.800781 L 55.585938 407.820312 L -90.128906 246.351562 Z M 140.382812 38.328125 " clip-rule="nonzero"/></clipPath><clipPath id="4acfd6d525"><path d="M 123 140 L 170 140 L 170 186 L 123 186 Z M 123 140 " clip-rule="nonzero"/></clipPath><clipPath id="b12f9dfdef"><path d="M 140.382812 38.328125 L 286.101562 199.800781 L 55.585938 407.820312 L -90.128906 246.351562 Z M 140.382812 38.328125 " clip-rule="nonzero"/></clipPath><clipPath id="9065bf6303"><path d="M 140.382812 38.328125 L 286.101562 199.800781 L 55.585938 407.820312 L -90.128906 246.351562 Z M 140.382812 38.328125 " clip-rule="nonzero"/></clipPath><clipPath id="10daa7b084"><path d="M 140.382812 38.328125 L 286.101562 199.800781 L 55.585938 407.820312 L -90.128906 246.351562 Z M 140.382812 38.328125 " clip-rule="nonzero"/></clipPath><clipPath id="683ee3637b"><path d="M 0 178 L 134 178 L 134 340 L 0 340 Z M 0 178 " clip-rule="nonzero"/></clipPath><clipPath id="cbc0a91857"><path d="M 140.382812 38.328125 L 286.101562 199.800781 L 55.585938 407.820312 L -90.128906 246.351562 Z M 140.382812 38.328125 " clip-rule="nonzero"/></clipPath><clipPath id="59889dcb70"><path d="M 140.382812 38.328125 L 286.101562 199.800781 L 55.585938 407.820312 L -90.128906 246.351562 Z M 140.382812 38.328125 " clip-rule="nonzero"/></clipPath><clipPath id="d02b6ebf18"><path d="M 140.382812 38.328125 L 286.101562 199.800781 L 55.585938 407.820312 L -90.128906 246.351562 Z M 140.382812 38.328125 " clip-rule="nonzero"/></clipPath><clipPath id="6861ddc82a"><path d="M 1257 236 L 1388 236 L 1388 342 L 1257 342 Z M 1257 236 " clip-rule="nonzero"/></clipPath><clipPath id="cdd7756d0a"><path d="M 1245.132812 255.855469 L 1417.78125 228.820312 L 1460.363281 500.757812 L 1287.71875 527.789062 Z M 1245.132812 255.855469 " clip-rule="nonzero"/></clipPath><clipPath id="9c822a8d84"><path d="M 1245.132812 255.855469 L 1417.78125 228.820312 L 1460.363281 500.757812 L 1287.71875 527.789062 Z M 1245.132812 255.855469 " clip-rule="nonzero"/></clipPath><clipPath id="c9fb2fe68b"><path d="M 1245.132812 255.855469 L 1417.78125 228.820312 L 1460.363281 500.757812 L 1287.71875 527.789062 Z M 1245.132812 255.855469 " clip-rule="nonzero"/></clipPath><clipPath id="0a79da9850"><path d="M 1282 270 L 1384 270 L 1384 361 L 1282 361 Z M 1282 270 " clip-rule="nonzero"/></clipPath><clipPath id="05c5e6c947"><path d="M 1245.132812 255.855469 L 1417.78125 228.820312 L 1460.363281 500.757812 L 1287.71875 527.789062 Z M 1245.132812 255.855469 " clip-rule="nonzero"/></clipPath><clipPath id="4fb8446c4a"><path d="M 1245.132812 255.855469 L 1417.78125 228.820312 L 1460.363281 500.757812 L 1287.71875 527.789062 Z M 1245.132812 255.855469 " clip-rule="nonzero"/></clipPath><clipPath id="ee2e0f3570"><path d="M 1245.132812 255.855469 L 1417.78125 228.820312 L 1460.363281 500.757812 L 1287.71875 527.789062 Z M 1245.132812 255.855469 " clip-rule="nonzero"/></clipPath><clipPath id="f8326ba408"><path d="M 1329 330 L 1440 330 L 1440 503 L 1329 503 Z M 1329 330 " clip-rule="nonzero"/></clipPath><clipPath id="4dc6ed7139"><path d="M 1245.132812 255.855469 L 1417.78125 228.820312 L 1460.363281 500.757812 L 1287.71875 527.789062 Z M 1245.132812 255.855469 " clip-rule="nonzero"/></clipPath><clipPath id="543f8e9473"><path d="M 1245.132812 255.855469 L 1417.78125 228.820312 L 1460.363281 500.757812 L 1287.71875 527.789062 Z M 1245.132812 255.855469 " clip-rule="nonzero"/></clipPath><clipPath id="ba11807df1"><path d="M 1245.132812 255.855469 L 1417.78125 228.820312 L 1460.363281 500.757812 L 1287.71875 527.789062 Z M 1245.132812 255.855469 " clip-rule="nonzero"/></clipPath><clipPath id="5735a29c56"><path d="M 681 122 L 796 122 L 796 241 L 681 241 Z M 681 122 " clip-rule="nonzero"/></clipPath><clipPath id="27ef8345e1"><path d="M 631.871094 -98.707031 L 879.6875 10.347656 L 766.105469 268.460938 L 518.289062 159.410156 Z M 631.871094 -98.707031 " clip-rule="nonzero"/></clipPath><clipPath id="798df42c6b"><path d="M 631.871094 -98.707031 L 879.6875 10.347656 L 766.105469 268.460938 L 518.289062 159.410156 Z M 631.871094 -98.707031 " clip-rule="nonzero"/></clipPath><clipPath id="271fc13fae"><path d="M 602 0 L 823 0 L 823 162 L 602 162 Z M 602 0 " clip-rule="nonzero"/></clipPath><clipPath id="d17530e6f4"><path d="M 631.871094 -98.707031 L 879.6875 10.347656 L 766.105469 268.460938 L 518.289062 159.410156 Z M 631.871094 -98.707031 " clip-rule="nonzero"/></clipPath><clipPath id="f2bf90debd"><path d="M 631.871094 -98.707031 L 879.6875 10.347656 L 766.105469 268.460938 L 518.289062 159.410156 Z M 631.871094 -98.707031 " clip-rule="nonzero"/></clipPath><clipPath id="d243acc5cb"><path d="M 692 143 L 790 143 L 790 235 L 692 235 Z M 692 143 " clip-rule="nonzero"/></clipPath><clipPath id="7dfa9cb8b3"><path d="M 631.871094 -98.707031 L 879.6875 10.347656 L 766.105469 268.460938 L 518.289062 159.410156 Z M 631.871094 -98.707031 " clip-rule="nonzero"/></clipPath><clipPath id="66c8c45316"><path d="M 631.871094 -98.707031 L 879.6875 10.347656 L 766.105469 268.460938 L 518.289062 159.410156 Z M 631.871094 -98.707031 " clip-rule="nonzero"/></clipPath><clipPath id="50ac761a9f"><path d="M 627 0 L 822 0 L 822 69 L 627 69 Z M 627 0 " clip-rule="nonzero"/></clipPath><clipPath id="78dd1e60e4"><path d="M 631.871094 -98.707031 L 879.6875 10.347656 L 766.105469 268.460938 L 518.289062 159.410156 Z M 631.871094 -98.707031 " clip-rule="nonzero"/></clipPath><clipPath id="f8523a291e"><path d="M 631.871094 -98.707031 L 879.6875 10.347656 L 766.105469 268.460938 L 518.289062 159.410156 Z M 631.871094 -98.707031 " clip-rule="nonzero"/></clipPath><clipPath id="85d91a8f48"><path d="M 901.398438 611 L 1142.898438 611 L 1142.898438 739 L 901.398438 739 Z M 901.398438 611 " clip-rule="nonzero"/></clipPath></defs><rect x="-144" width="1728" fill="#ffffff" y="-80.999999" height="971.999992" fill-opacity="1"/><rect x="-144" width="1728" fill="#f5f0e6" y="-80.999999" height="971.999992" fill-opacity="1"/><g clip-path="url(#14a0e1097d)"><path fill="#8f9977" d="M 201.566406 666.179688 C 201.933594 666.636719 202.222656 667.140625 202.433594 667.6875 C 202.644531 668.238281 202.765625 668.800781 202.804688 669.386719 C 202.839844 669.972656 202.789062 670.550781 202.648438 671.121094 C 202.507812 671.6875 202.28125 672.222656 201.976562 672.726562 C 201.214844 673.925781 200.214844 674.886719 198.988281 675.609375 C 197.761719 676.328125 196.4375 676.730469 195.015625 676.816406 C 191.789062 677.019531 188.601562 676.746094 185.457031 675.996094 C 182.179688 675.453125 179.039062 674.632812 175.898438 673.816406 C 172.757812 672.996094 169.621094 671.496094 166.480469 670.269531 C 163.273438 669.246094 159.996094 668.566406 156.648438 668.226562 C 150.152344 667.632812 143.644531 667.449219 137.125 667.679688 C 131.253906 667.679688 125.246094 668.363281 120.195312 671.769531 L 119.921875 671.769531 C 103.8125 688.269531 87.292969 704.632812 73.363281 723.179688 C 56.707031 744.996094 43.191406 770.226562 39.777344 797.90625 C 36.363281 825.589844 43.738281 852.863281 58.894531 876.042969 C 58.9375 876.132812 58.960938 876.226562 58.964844 876.328125 C 58.964844 876.425781 58.949219 876.523438 58.910156 876.613281 C 58.871094 876.707031 58.8125 876.785156 58.738281 876.851562 C 58.664062 876.921875 58.578125 876.96875 58.484375 876.996094 L 51.519531 878.769531 C 51.191406 878.742188 50.917969 878.605469 50.699219 878.363281 C 48.925781 875.632812 47.289062 872.90625 45.785156 870.042969 C 42.667969 864.3125 40.019531 858.371094 37.835938 852.222656 C 35.65625 846.074219 33.964844 839.792969 32.773438 833.382812 C 31.578125 826.96875 30.894531 820.5 30.71875 813.980469 C 30.542969 807.460938 30.878906 800.964844 31.722656 794.496094 C 35.273438 767.632812 48.105469 743.089844 64.21875 721.679688 C 80.328125 700.269531 102.582031 678.589844 122.652344 657.863281 C 127.703125 652.679688 132.621094 647.226562 137.261719 641.632812 C 141.085938 631.269531 137.398438 620.363281 133.300781 610.679688 C 127.292969 596.226562 118.285156 581.90625 105.039062 573.179688 C 101.683594 571.023438 98.132812 569.25 94.390625 567.863281 C 90.292969 566.363281 85.925781 564.996094 82.648438 561.863281 C 79.371094 558.726562 78.007812 555.863281 78.828125 552.179688 C 78.980469 551.441406 79.238281 550.742188 79.597656 550.082031 C 79.957031 549.417969 80.40625 548.820312 80.9375 548.289062 C 81.472656 547.757812 82.070312 547.308594 82.730469 546.953125 C 83.394531 546.59375 84.09375 546.335938 84.832031 546.179688 C 84.339844 545.40625 83.96875 544.578125 83.71875 543.695312 C 83.472656 542.8125 83.355469 541.910156 83.375 540.996094 C 83.394531 540.078125 83.546875 539.183594 83.832031 538.3125 C 84.117188 537.4375 84.523438 536.628906 85.046875 535.875 C 85.574219 535.125 86.199219 534.464844 86.921875 533.898438 C 87.644531 533.332031 88.433594 532.878906 89.289062 532.546875 C 90.144531 532.214844 91.03125 532.011719 91.945312 531.941406 C 92.859375 531.871094 93.765625 531.9375 94.664062 532.132812 C 94.425781 531.097656 94.246094 530.054688 94.117188 528.996094 C 93.433594 524.632812 94.390625 519.042969 99.03125 517.132812 C 103.675781 515.226562 108.316406 518.769531 111.457031 521.90625 C 118.546875 529.46875 124.417969 537.878906 129.070312 547.132812 C 133.804688 556.726562 137.402344 566.726562 139.855469 577.132812 C 142.496094 588.355469 144.179688 599.71875 144.90625 611.226562 C 145.453125 618.179688 146 625.132812 144.632812 631.953125 C 146.273438 629.496094 147.910156 626.90625 149.414062 624.179688 C 155.710938 613.171875 159.804688 601.398438 161.699219 588.863281 C 162.707031 582.597656 163.152344 576.296875 163.042969 569.957031 C 162.933594 563.613281 162.265625 557.332031 161.042969 551.109375 C 159.820312 544.882812 158.058594 538.816406 155.761719 532.902344 C 153.464844 526.992188 150.664062 521.324219 147.363281 515.90625 C 147.1875 515.753906 147.128906 515.566406 147.195312 515.34375 C 147.257812 515.117188 147.40625 514.988281 147.636719 514.953125 C 149.277344 513.726562 150.914062 512.496094 152.691406 511.40625 C 152.726562 511.351562 152.777344 511.304688 152.835938 511.273438 C 152.898438 511.238281 152.960938 511.222656 153.03125 511.222656 C 153.097656 511.222656 153.164062 511.238281 153.226562 511.273438 C 153.285156 511.304688 153.335938 511.351562 153.371094 511.40625 C 153.453125 511.480469 153.5 511.570312 153.507812 511.679688 C 155.097656 514.242188 156.554688 516.878906 157.878906 519.589844 C 160.53125 525.136719 162.773438 530.84375 164.597656 536.714844 C 166.425781 542.585938 167.816406 548.554688 168.777344 554.628906 C 169.734375 560.699219 170.25 566.808594 170.324219 572.957031 C 170.398438 579.101562 170.027344 585.222656 169.210938 591.316406 C 167.636719 603.144531 164.132812 614.371094 158.695312 624.996094 C 152.417969 636.726562 143.679688 647.089844 134.53125 656.632812 C 137.480469 654.566406 140.53125 652.65625 143.679688 650.90625 L 152.691406 646.132812 C 155.617188 644.601562 158.621094 643.238281 161.699219 642.042969 C 164.902344 641.007812 168.179688 640.324219 171.53125 639.996094 C 175.023438 639.5625 178.527344 639.335938 182.042969 639.316406 C 185.214844 639.25 188.355469 639.523438 191.464844 640.132812 C 194.179688 640.503906 196.636719 641.503906 198.835938 643.132812 C 202.113281 645.726562 203.617188 651.179688 200.613281 654.453125 C 201.554688 655.066406 202.324219 655.851562 202.921875 656.804688 C 203.519531 657.757812 203.886719 658.792969 204.023438 659.90625 C 204.148438 661.089844 203.992188 662.234375 203.558594 663.339844 C 203.125 664.445312 202.460938 665.394531 201.566406 666.179688 Z M 201.566406 666.179688 " fill-opacity="1" fill-rule="nonzero"/></g><g clip-path="url(#1138e90548)"><path fill="#e2afcb" d="M 171.804688 437.496094 C 171.808594 436.390625 171.542969 435.351562 171.007812 434.382812 C 170.476562 433.410156 169.738281 432.632812 168.800781 432.042969 C 166.871094 430.871094 164.777344 430.328125 162.519531 430.40625 C 158.96875 430.269531 154.875 431.632812 153.644531 434.90625 C 151.625 433.671875 149.449219 432.828125 147.125 432.382812 C 144.796875 431.9375 142.464844 431.914062 140.128906 432.316406 C 137.808594 432.746094 135.644531 433.585938 133.640625 434.832031 C 131.636719 436.078125 129.933594 437.648438 128.523438 439.542969 C 126.519531 438.730469 124.441406 438.289062 122.28125 438.21875 C 120.121094 438.148438 118.015625 438.453125 115.960938 439.132812 C 113.941406 439.878906 112.128906 440.972656 110.527344 442.410156 C 108.921875 443.84375 107.640625 445.527344 106.679688 447.453125 C 105.671875 447.214844 104.652344 447.109375 103.621094 447.136719 C 102.589844 447.160156 101.574219 447.316406 100.582031 447.605469 C 99.589844 447.890625 98.648438 448.296875 97.761719 448.828125 C 96.875 449.355469 96.070312 449.988281 95.347656 450.726562 C 94.632812 451.460938 94.03125 452.277344 93.535156 453.171875 C 93.042969 454.070312 92.675781 455.015625 92.433594 456.011719 C 92.195312 457.007812 92.089844 458.015625 92.121094 459.039062 C 92.152344 460.0625 92.316406 461.0625 92.617188 462.042969 L 97.941406 469.132812 L 172.894531 449.632812 Z M 171.804688 437.496094 " fill-opacity="1" fill-rule="nonzero"/></g><path fill="#fed966" d="M 162.246094 442.542969 C 161.679688 442.066406 161.070312 441.652344 160.417969 441.296875 C 159.769531 440.9375 159.09375 440.648438 158.386719 440.421875 C 157.679688 440.195312 156.960938 440.039062 156.222656 439.953125 C 155.488281 439.867188 154.75 439.851562 154.007812 439.910156 C 153.269531 439.964844 152.542969 440.09375 151.828125 440.289062 C 151.113281 440.488281 150.425781 440.753906 149.761719 441.082031 C 149.097656 441.414062 148.472656 441.804688 147.886719 442.257812 C 147.300781 442.710938 146.761719 443.214844 146.273438 443.769531 C 145.796875 443.484375 145.296875 443.246094 144.773438 443.058594 C 144.25 442.871094 143.710938 442.742188 143.160156 442.664062 C 142.609375 442.585938 142.054688 442.566406 141.5 442.601562 C 140.945312 442.636719 140.398438 442.730469 139.863281 442.875 C 139.328125 443.023438 138.808594 443.222656 138.316406 443.472656 C 137.820312 443.726562 137.351562 444.023438 136.917969 444.371094 C 136.484375 444.71875 136.085938 445.105469 135.730469 445.53125 C 135.375 445.957031 135.066406 446.417969 134.804688 446.90625 C 132.449219 446.054688 130.039062 445.828125 127.566406 446.226562 C 125.246094 446.769531 122.925781 448.679688 122.789062 450.996094 C 120.507812 450.546875 118.277344 450.730469 116.097656 451.542969 C 114.050781 452.632812 112.6875 455.089844 113.777344 457.132812 L 120.332031 477.179688 L 169.074219 462.042969 Z M 162.246094 442.542969 " fill-opacity="1" fill-rule="nonzero"/><path fill="#f2c5dc" d="M 121.425781 464.363281 C 117.738281 458.632812 108.042969 458.632812 104.222656 464.226562 C 103.835938 463.582031 103.363281 463.007812 102.804688 462.507812 C 102.246094 462.003906 101.625 461.597656 100.941406 461.28125 C 100.261719 460.964844 99.546875 460.753906 98.804688 460.652344 C 98.058594 460.550781 97.316406 460.558594 96.574219 460.679688 C 95.828125 460.816406 95.121094 461.0625 94.449219 461.417969 C 93.78125 461.769531 93.175781 462.214844 92.640625 462.75 C 92.105469 463.285156 91.660156 463.886719 91.304688 464.558594 C 90.953125 465.226562 90.707031 465.933594 90.566406 466.679688 C 90.453125 468.058594 90.542969 469.421875 90.847656 470.769531 C 91.148438 472.121094 91.648438 473.390625 92.34375 474.589844 C 98.375 488.144531 106.429688 500.371094 116.507812 511.269531 C 120.332031 515.363281 124.699219 519.453125 130.027344 520.953125 C 135.351562 522.453125 142.175781 520.816406 144.769531 515.769531 C 145.375 516.035156 146 516.238281 146.640625 516.382812 C 147.285156 516.527344 147.9375 516.613281 148.59375 516.636719 C 149.253906 516.660156 149.910156 516.621094 150.558594 516.519531 C 151.210938 516.421875 151.847656 516.261719 152.46875 516.042969 C 153.089844 515.824219 153.6875 515.546875 154.257812 515.214844 C 154.828125 514.882812 155.359375 514.503906 155.859375 514.070312 C 156.355469 513.640625 156.808594 513.164062 157.21875 512.648438 C 157.625 512.132812 157.984375 511.582031 158.289062 510.996094 C 164.703125 513.863281 171.941406 508.40625 175.625 502.542969 C 185.183594 487.40625 184.910156 468.316406 183.957031 450.589844 C 183.683594 447.316406 183.546875 444.042969 182.042969 441.316406 C 180.542969 438.589844 177.539062 436.269531 174.398438 436.679688 C 171.257812 437.089844 167.980469 442.816406 167.027344 447.316406 C 160.882812 444.042969 152.007812 448.953125 151.597656 455.90625 C 151.042969 455.160156 150.394531 454.507812 149.648438 453.953125 C 148.90625 453.398438 148.09375 452.964844 147.21875 452.648438 C 146.34375 452.332031 145.441406 452.148438 144.515625 452.101562 C 143.585938 452.050781 142.671875 452.140625 141.765625 452.363281 C 140.882812 452.628906 140.054688 453.019531 139.285156 453.535156 C 138.519531 454.050781 137.84375 454.667969 137.257812 455.382812 C 136.675781 456.101562 136.207031 456.886719 135.859375 457.742188 C 135.511719 458.597656 135.296875 459.488281 135.214844 460.40625 C 134.839844 459.742188 134.367188 459.15625 133.796875 458.652344 C 133.222656 458.148438 132.582031 457.753906 131.875 457.46875 C 131.167969 457.183594 130.433594 457.023438 129.671875 456.988281 C 128.90625 456.957031 128.160156 457.050781 127.429688 457.269531 C 126.714844 457.539062 126.058594 457.921875 125.472656 458.410156 C 124.882812 458.898438 124.386719 459.472656 123.992188 460.128906 C 123.597656 460.78125 123.316406 461.484375 123.160156 462.234375 C 123 462.984375 122.96875 463.738281 123.0625 464.496094 Z M 121.425781 464.363281 " fill-opacity="1" fill-rule="nonzero"/><path fill="#e2afcb" d="M 144.089844 511.816406 C 144.292969 512.085938 144.382812 512.390625 144.359375 512.730469 C 144.332031 513.070312 144.203125 513.359375 143.960938 513.597656 C 143.722656 513.839844 143.429688 513.96875 143.09375 513.996094 C 142.753906 514.019531 142.449219 513.929688 142.175781 513.726562 C 139.269531 510.617188 136.628906 507.300781 134.257812 503.769531 C 130.085938 497.582031 126.828125 490.941406 124.484375 483.855469 C 122.144531 476.769531 120.804688 469.5 120.46875 462.042969 C 120.332031 460.269531 123.0625 460.269531 123.199219 462.042969 C 123.355469 466.085938 123.855469 470.085938 124.699219 474.042969 C 126.132812 481.109375 128.492188 487.851562 131.785156 494.265625 C 135.078125 500.679688 139.179688 506.53125 144.089844 511.816406 Z M 157.742188 486.042969 C 156.785156 478.816406 155.691406 471.453125 154.738281 464.089844 C 154.320312 460.152344 153.546875 456.289062 152.417969 452.496094 C 151.871094 450.863281 149.140625 451.542969 149.6875 453.179688 C 150.691406 456.484375 151.417969 459.847656 151.871094 463.269531 C 152.417969 466.953125 152.824219 470.632812 153.371094 474.179688 C 154.464844 481.40625 155.558594 488.496094 156.375 495.726562 C 156.761719 499.675781 156.808594 503.628906 156.511719 507.589844 C 156.375 509.363281 159.105469 509.363281 159.242188 507.589844 C 159.789062 500.363281 158.832031 493.269531 157.742188 486.042969 Z M 157.742188 486.042969 " fill-opacity="1" fill-rule="nonzero"/><g clip-path="url(#3d0eef80ad)"><g clip-path="url(#1b0a98391d)"><g clip-path="url(#128b95c14e)"><g clip-path="url(#8c6b40dda9)"><path fill="#8f9977" d="M 122.445312 347.304688 C 123.566406 345.722656 124.0625 343.96875 123.9375 342.035156 C 123.609375 337.515625 120.304688 334.25 116.777344 331.726562 C 113.808594 329.339844 110.488281 327.636719 106.816406 326.621094 C 108.058594 325.730469 108.992188 324.589844 109.617188 323.199219 C 110.160156 321.890625 110.375 320.53125 110.265625 319.121094 C 110.15625 317.710938 109.734375 316.402344 109 315.191406 C 105.089844 309.085938 97.429688 308.503906 90.9375 308.832031 L 80.027344 309.398438 C 80.960938 308.449219 81.640625 307.339844 82.066406 306.082031 C 82.492188 304.820312 82.625 303.527344 82.460938 302.207031 C 82.035156 297.777344 78.917969 294.519531 75.261719 292.644531 C 71.199219 290.769531 66.945312 289.550781 62.503906 288.992188 C 58.136719 288.269531 53.742188 288.011719 49.316406 288.226562 C 46.46875 288.335938 43.640625 288.628906 40.828125 289.105469 C 49.367188 279.675781 57.050781 269.59375 63.871094 258.855469 C 65.707031 255.949219 67.359375 253.03125 69.109375 250.023438 L 68.992188 250.488281 C 69.082031 251.464844 69.441406 252.328125 70.078125 253.074219 C 72.839844 257.71875 75.988281 262.195312 79.144531 266.484375 C 82.164062 270.753906 85.390625 274.855469 88.828125 278.796875 C 91.222656 281.625 94.078125 283.867188 97.394531 285.519531 C 98.957031 286.226562 100.59375 286.59375 102.308594 286.617188 C 104.140625 286.449219 105.859375 285.914062 107.457031 285.003906 C 108.476562 284.363281 109.585938 284.078125 110.785156 284.140625 C 111.976562 284.304688 113.117188 284.644531 114.203125 285.160156 L 121.644531 288.257812 C 125.871094 289.976562 130.539062 292.183594 135.277344 291.300781 C 136.335938 291.121094 137.328125 290.765625 138.261719 290.234375 C 139.191406 289.699219 140 289.023438 140.691406 288.199219 C 141.890625 286.582031 142.453125 284.765625 142.378906 282.75 C 142.34375 277.964844 138.96875 274.230469 135.558594 271.242188 C 131.746094 267.761719 127.550781 264.828125 122.972656 262.4375 L 120.6875 261.289062 C 121.242188 260.6875 121.710938 260.023438 122.089844 259.296875 C 122.464844 258.574219 122.742188 257.808594 122.914062 257.011719 C 123.089844 256.210938 123.152344 255.402344 123.109375 254.585938 C 123.066406 253.769531 122.914062 252.972656 122.65625 252.195312 C 121.460938 248.101562 117.941406 245.386719 114.078125 243.878906 C 109.726562 242.484375 105.261719 241.691406 100.695312 241.503906 C 91.390625 240.753906 82.191406 241.441406 73.101562 243.566406 C 73.40625 243.113281 73.71875 242.472656 74.125 241.929688 C 77.71875 236.679688 81.960938 232.019531 86.851562 227.945312 C 96.367188 219.894531 107.8125 214.382812 119.546875 210.574219 C 122.414062 209.59375 125.367188 208.714844 128.3125 208.019531 C 128.882812 207.859375 129.105469 207.121094 128.46875 206.808594 C 125.910156 205.273438 123.195312 204.109375 120.324219 203.308594 C 117.449219 202.511719 114.523438 202.105469 111.542969 202.097656 C 111.433594 202.097656 111.332031 202.125 111.234375 202.175781 C 111.136719 202.230469 111.058594 202.300781 111 202.390625 C 110.9375 202.480469 110.902344 202.582031 110.890625 202.6875 C 110.878906 202.796875 110.890625 202.902344 110.933594 203.003906 C 100.246094 202.832031 90.136719 207.851562 82.464844 214.777344 C 77.332031 219.457031 72.8125 224.667969 68.902344 230.40625 C 69.394531 220.867188 69.136719 211.347656 68.121094 201.851562 C 67.554688 196.472656 67.003906 190.722656 64.054688 186.070312 C 62.820312 183.976562 61.085938 182.449219 58.851562 181.488281 C 56.679688 180.71875 54.496094 180.671875 52.292969 181.34375 C 48.277344 182.824219 45.277344 186.425781 43.300781 190.171875 C 42.648438 180.945312 40.046875 169.554688 30.351562 166.527344 C 29.304688 166.214844 28.238281 166.015625 27.148438 165.929688 C 26.058594 165.84375 24.972656 165.875 23.886719 166.023438 C 22.804688 166.167969 21.75 166.429688 20.722656 166.800781 C 19.691406 167.171875 18.714844 167.648438 17.789062 168.230469 C 15.824219 169.375 14.164062 170.855469 12.800781 172.675781 C 11.4375 174.492188 10.480469 176.503906 9.933594 178.710938 C 9.386719 181.007812 9.214844 183.332031 9.414062 185.683594 C 9.613281 188.035156 10.175781 190.296875 11.097656 192.464844 C 9.082031 191.90625 7.105469 192.023438 5.171875 192.820312 C 3.886719 193.378906 2.78125 194.1875 1.859375 195.238281 C 0.933594 196.292969 0.277344 197.488281 -0.109375 198.835938 C -2.230469 205.386719 1.371094 211.949219 6.222656 216.136719 C 11.070312 220.324219 19.355469 223.375 26.261719 225.886719 L 49.375 234.289062 L 62.363281 238.984375 L 62.914062 239.203125 L 58.144531 246.179688 C 50.652344 257.253906 42.566406 267.878906 33.894531 278.058594 C 32.507812 279.488281 31.207031 281.015625 29.820312 282.445312 C 31.105469 275.851562 31.261719 269.230469 30.28125 262.582031 L 28.667969 255.652344 C 27.960938 253.171875 26.921875 250.835938 25.558594 248.644531 C 24.992188 247.835938 24.324219 247.117188 23.558594 246.492188 C 22.792969 245.867188 21.957031 245.359375 21.050781 244.964844 C 20.144531 244.570312 19.199219 244.308594 18.222656 244.175781 C 17.242188 244.039062 16.261719 244.042969 15.28125 244.179688 C 13.847656 244.390625 12.5 244.863281 11.246094 245.59375 C 9.992188 246.324219 8.921875 247.261719 8.027344 248.40625 C 8.535156 242.242188 8.675781 235.871094 6.253906 230.023438 C 5.671875 228.644531 4.90625 227.371094 3.96875 226.203125 C 3.027344 225.039062 1.945312 224.023438 0.722656 223.15625 C -0.5 222.289062 -1.816406 221.609375 -3.230469 221.109375 C -4.640625 220.609375 -6.097656 220.3125 -7.589844 220.21875 C -9.042969 220.09375 -10.457031 220.269531 -11.835938 220.738281 C -13.210938 221.203125 -14.441406 221.929688 -15.515625 222.910156 C -16.96875 221.519531 -18.542969 220.285156 -20.234375 219.199219 C -21.921875 218.113281 -23.703125 217.195312 -25.566406 216.449219 C -27.433594 215.703125 -29.351562 215.140625 -31.324219 214.761719 C -33.300781 214.382812 -35.292969 214.195312 -37.300781 214.199219 C -41.238281 214.183594 -45.511719 215.183594 -48.121094 218.429688 C -48.683594 219.136719 -49.160156 219.902344 -49.546875 220.71875 C -49.9375 221.539062 -50.226562 222.390625 -50.417969 223.273438 C -50.609375 224.160156 -50.699219 225.054688 -50.683594 225.960938 C -50.671875 226.863281 -50.554688 227.757812 -50.332031 228.636719 C -49.6875 230.777344 -48.722656 232.761719 -47.4375 234.59375 C -46.152344 236.421875 -44.613281 238.003906 -42.816406 239.335938 C -47.21875 240.988281 -49.753906 246.488281 -48.675781 251.046875 C -47.597656 255.605469 -40.480469 261.3125 -34.34375 262.378906 C -30.996094 262.972656 -27.628906 263.144531 -24.238281 262.894531 C -24.667969 263.574219 -25.011719 264.296875 -25.273438 265.058594 C -25.535156 265.820312 -25.707031 266.601562 -25.789062 267.402344 C -25.871094 268.203125 -25.863281 269.003906 -25.757812 269.804688 C -25.65625 270.601562 -25.464844 271.378906 -25.183594 272.132812 C -24.75 273.136719 -24.214844 274.082031 -23.578125 274.96875 C -22.941406 275.855469 -22.21875 276.664062 -21.402344 277.394531 C -20.589844 278.125 -19.710938 278.757812 -18.757812 279.296875 C -17.808594 279.835938 -16.8125 280.265625 -15.769531 280.585938 C -10.980469 282.332031 -5.554688 282.609375 -0.449219 283.714844 C 5.105469 284.847656 10.527344 286.4375 15.8125 288.484375 C 17.703125 289.351562 19.632812 290.105469 21.605469 290.75 C 16.296875 295.722656 10.652344 300.28125 4.671875 304.425781 C 1.957031 306.164062 -0.855469 307.988281 -3.664062 309.628906 C -6.53125 310.992188 -9.300781 312.542969 -11.96875 314.269531 C -13.128906 315.019531 -14.136719 315.933594 -14.996094 317.011719 C -15.855469 318.09375 -16.515625 319.28125 -16.984375 320.582031 C -17.238281 321.621094 -17.3125 322.679688 -17.207031 323.746094 C -17.101562 324.8125 -16.820312 325.832031 -16.367188 326.804688 C -16.160156 327.25 -15.898438 327.660156 -15.582031 328.039062 C -15.261719 328.414062 -14.898438 328.738281 -14.492188 329.015625 C -14.085938 329.292969 -13.648438 329.511719 -13.183594 329.667969 C -12.714844 329.828125 -12.238281 329.917969 -11.746094 329.949219 C -8.9375 330.089844 -6.496094 328.246094 -4.265625 326.765625 C 1.210938 323.402344 6.496094 319.765625 11.589844 315.847656 C 17.695312 311.230469 23.546875 306.304688 29.144531 301.078125 C 32.585938 307.070312 35.933594 313.152344 39.660156 319.0625 C 43.390625 324.976562 47.640625 329.882812 54.535156 330.800781 C 55.910156 330.976562 57.273438 330.917969 58.628906 330.617188 C 59.980469 330.3125 61.242188 329.789062 62.410156 329.042969 C 64.25 335.234375 66.355469 341.722656 71.1875 346.28125 C 76.015625 350.84375 81.5625 352.441406 87.046875 349.8125 C 88.308594 349.222656 89.429688 348.429688 90.402344 347.425781 C 91.375 346.425781 92.136719 345.285156 92.691406 344.003906 C 96.160156 346.355469 99.917969 348.078125 103.964844 349.175781 C 108.203125 350.546875 112.53125 350.921875 116.945312 350.308594 C 119.113281 349.917969 120.945312 348.914062 122.445312 347.304688 Z M 72.078125 245.203125 C 72.175781 245.113281 72.175781 245.113281 72.363281 245.125 C 71.960938 246.003906 71.390625 246.757812 70.652344 247.382812 C 71.058594 246.613281 71.535156 245.886719 72.078125 245.203125 Z M 72.078125 245.203125 " fill-opacity="1" fill-rule="nonzero"/></g></g></g></g><g clip-path="url(#d03b3f35ab)"><g clip-path="url(#08ea3d3bc2)"><g clip-path="url(#1cc060ae09)"><g clip-path="url(#687d423db2)"><path fill="#fee2d7" d="M 174.785156 234.59375 C 172.527344 236.933594 169.976562 238.882812 167.128906 240.449219 C 164.28125 242.015625 161.265625 243.125 158.082031 243.777344 C 154.910156 244.347656 151.734375 244.367188 148.558594 243.835938 C 145.378906 243.300781 142.386719 242.25 139.574219 240.675781 C 128.824219 234.5 121.886719 221.667969 123.839844 209.199219 C 120.101562 209.53125 116.382812 209.386719 112.679688 208.769531 C 108.976562 208.148438 105.410156 207.078125 101.984375 205.550781 C 89.507812 200.035156 79.667969 188.933594 77.941406 175.148438 C 76.210938 161.363281 81.082031 148.761719 91.523438 140.945312 C 89.886719 140.46875 88.308594 139.839844 86.792969 139.066406 C 85.273438 138.289062 83.84375 137.375 82.5 136.328125 C 81.15625 135.277344 79.925781 134.113281 78.804688 132.832031 C 77.679688 131.546875 76.691406 130.171875 75.832031 128.699219 C 74.050781 125.9375 72.761719 122.960938 71.960938 119.773438 C 71.164062 116.582031 70.894531 113.351562 71.160156 110.074219 C 71.328125 108.417969 71.65625 106.792969 72.144531 105.199219 C 72.632812 103.609375 73.273438 102.078125 74.066406 100.613281 C 74.859375 99.148438 75.785156 97.777344 76.851562 96.496094 C 77.914062 95.214844 79.09375 94.050781 80.390625 93.003906 C 90.5625 84.890625 106.644531 84.117188 116.90625 92.523438 C 117.644531 87.875 119.304688 83.582031 121.886719 79.644531 C 123.375 77.332031 125.152344 75.273438 127.222656 73.464844 C 129.296875 71.65625 131.574219 70.171875 134.066406 69.007812 C 135.386719 68.46875 136.75 68.070312 138.152344 67.8125 C 139.558594 67.554688 140.972656 67.441406 142.398438 67.472656 C 143.824219 67.503906 145.234375 67.683594 146.625 68.003906 C 148.011719 68.328125 149.355469 68.789062 150.652344 69.386719 C 156.96875 72.429688 161.554688 78.105469 164.425781 84.253906 C 167.296875 90.40625 168.933594 98.742188 170.042969 106.304688 C 173.609375 105.253906 177.25 104.722656 180.96875 104.703125 C 184.6875 104.6875 188.332031 105.1875 191.90625 106.203125 C 195.148438 107.082031 198.238281 108.339844 201.167969 109.984375 C 204.101562 111.625 206.789062 113.597656 209.230469 115.902344 C 211.652344 118.207031 213.726562 120.785156 215.457031 123.644531 C 217.1875 126.5 218.511719 129.535156 219.433594 132.746094 C 219.875 134.332031 220.222656 135.933594 220.472656 137.558594 C 220.726562 139.183594 220.878906 140.816406 220.933594 142.460938 C 220.988281 144.101562 220.945312 145.742188 220.804688 147.378906 C 220.664062 149.019531 220.425781 150.640625 220.09375 152.25 C 219.757812 153.859375 219.328125 155.445312 218.804688 157.003906 C 218.277344 158.5625 217.664062 160.082031 216.957031 161.566406 C 216.25 163.050781 215.457031 164.488281 214.578125 165.878906 C 213.699219 167.269531 212.742188 168.601562 211.703125 169.875 C 213.390625 171.878906 214.777344 174.070312 215.863281 176.449219 C 216.953125 178.828125 217.699219 181.3125 218.109375 183.898438 C 218.3125 185.070312 218.441406 186.253906 218.496094 187.445312 C 218.546875 188.632812 218.527344 189.820312 218.429688 191.007812 C 218.332031 192.195312 218.15625 193.371094 217.910156 194.535156 C 217.664062 195.703125 217.34375 196.847656 216.949219 197.972656 C 216.554688 199.097656 216.09375 200.191406 215.5625 201.257812 C 215.027344 202.320312 214.429688 203.351562 213.769531 204.339844 C 213.105469 205.328125 212.382812 206.273438 211.597656 207.171875 C 210.816406 208.070312 209.976562 208.914062 209.089844 209.703125 C 207.339844 211.191406 205.449219 212.457031 203.40625 213.507812 C 201.367188 214.554688 199.234375 215.355469 197.007812 215.910156 C 194.78125 216.464844 192.523438 216.753906 190.230469 216.785156 C 187.9375 216.816406 185.667969 216.582031 183.429688 216.085938 C 183.097656 219.574219 182.1875 222.910156 180.703125 226.085938 C 179.21875 229.261719 177.246094 232.097656 174.785156 234.59375 Z M 174.785156 234.59375 " fill-opacity="1" fill-rule="nonzero"/></g></g></g></g><g clip-path="url(#4acfd6d525)"><g clip-path="url(#b12f9dfdef)"><g clip-path="url(#9065bf6303)"><g clip-path="url(#10daa7b084)"><path fill="#ffc44a" d="M 160.792969 156.582031 C 158.835938 155.738281 157.210938 154.464844 155.921875 152.769531 C 154.625 151.136719 153.558594 149.363281 152.726562 147.445312 C 152.011719 145.960938 151.871094 144.421875 152.308594 142.828125 C 152.429688 142.46875 152.621094 142.148438 152.875 141.867188 C 153.128906 141.582031 153.429688 141.363281 153.773438 141.203125 C 154.117188 141.042969 154.480469 140.957031 154.859375 140.945312 C 155.238281 140.9375 155.605469 141 155.960938 141.140625 C 156.933594 141.539062 157.878906 141.992188 158.796875 142.503906 L 161.714844 144.152344 C 163.484375 145.089844 165.050781 146.296875 166.40625 147.769531 C 166.902344 148.035156 167.347656 148.371094 167.734375 148.78125 C 168.121094 149.191406 168.429688 149.652344 168.667969 150.164062 C 168.902344 150.675781 169.050781 151.210938 169.113281 151.773438 C 169.171875 152.332031 169.144531 152.886719 169.023438 153.4375 C 168.1875 156.867188 163.648438 157.574219 160.792969 156.582031 Z M 137.785156 146.121094 C 134.496094 146.234375 132.324219 142.839844 129.28125 141.839844 C 126.238281 140.839844 122.558594 144.875 123.5 148.488281 C 124.316406 150.761719 125.722656 152.585938 127.71875 153.957031 C 129.523438 155.429688 131.53125 156.53125 133.738281 157.265625 C 137.347656 158.292969 142.484375 156.867188 143.269531 152.59375 C 144.050781 148.316406 141.132812 144.882812 137.785156 146.121094 Z M 164.179688 181.894531 C 164.5625 179.945312 163.445312 177.917969 162.398438 176.363281 C 161.355469 174.808594 160.359375 174.101562 159.292969 172.921875 C 158.230469 171.742188 159.304688 172.734375 159.125 172.539062 C 156.867188 169.046875 153.683594 165.320312 149.132812 166.210938 C 148.242188 166.328125 147.433594 166.652344 146.707031 167.183594 C 145.980469 167.710938 145.425781 168.382812 145.039062 169.191406 C 144.730469 170.054688 144.628906 170.941406 144.730469 171.855469 C 144.832031 172.765625 145.125 173.605469 145.617188 174.382812 C 146.707031 176.285156 148.058594 177.980469 149.667969 179.464844 C 151.382812 181.285156 153.339844 182.792969 155.535156 183.988281 C 158.273438 185.441406 163.492188 186.082031 164.179688 181.894531 Z M 164.179688 181.894531 " fill-opacity="1" fill-rule="nonzero"/></g></g></g></g><g clip-path="url(#683ee3637b)"><g clip-path="url(#cbc0a91857)"><g clip-path="url(#59889dcb70)"><g clip-path="url(#d02b6ebf18)"><path fill="#727a59" d="M 18.433594 279.519531 C 14.914062 275.023438 11.292969 270.617188 7.476562 266.390625 C -6.066406 251.421875 -21.347656 238.507812 -38.371094 227.652344 C -39.097656 227.238281 -38.382812 226.054688 -37.652344 226.46875 C -32.84375 229.621094 -28.21875 232.765625 -23.617188 236.285156 C -7.398438 248.496094 6.945312 262.613281 19.417969 278.632812 C 19.851562 279.308594 18.867188 280.199219 18.433594 279.519531 Z M 21.414062 179.765625 C 29.476562 193.410156 38.46875 206.410156 48.394531 218.761719 C 51.214844 222.28125 54.222656 225.8125 57.238281 229.15625 C 57.363281 229.292969 57.515625 229.363281 57.695312 229.375 C 57.878906 229.382812 58.039062 229.324219 58.175781 229.203125 C 58.3125 229.082031 58.382812 228.929688 58.394531 228.746094 C 58.402344 228.5625 58.347656 228.402344 58.222656 228.269531 C 47.667969 216.414062 38.125 203.792969 29.59375 190.410156 C 27.15625 186.71875 24.816406 182.941406 22.667969 179.171875 C 22.144531 178.394531 20.980469 179.085938 21.414062 179.765625 Z M 132.324219 283.082031 C 133.050781 283.496094 133.769531 282.3125 133.039062 281.898438 C 118.414062 274.140625 104.214844 265.660156 90.449219 256.460938 C 86.546875 253.917969 82.652344 251.183594 78.945312 248.460938 C 78.796875 248.351562 78.628906 248.308594 78.445312 248.335938 C 78.261719 248.363281 78.113281 248.453125 78 248.601562 C 77.890625 248.75 77.847656 248.917969 77.875 249.101562 C 77.902344 249.289062 77.992188 249.4375 78.140625 249.546875 C 91.613281 259.15625 105.539062 268.058594 119.917969 276.257812 Z M 109.488281 338.484375 C 99.167969 334.925781 89.164062 330.628906 79.476562 325.597656 C 69.925781 320.519531 60.777344 314.800781 52.027344 308.4375 C 47.0625 304.714844 42.289062 300.8125 37.617188 296.820312 C 37.496094 296.683594 37.34375 296.613281 37.160156 296.601562 C 36.976562 296.59375 36.816406 296.652344 36.683594 296.773438 C 36.546875 296.894531 36.472656 297.046875 36.464844 297.230469 C 36.453125 297.414062 36.511719 297.574219 36.632812 297.707031 C 44.945312 304.90625 53.703125 311.515625 62.910156 317.53125 C 72.128906 323.363281 81.710938 328.511719 91.664062 332.976562 C 97.347656 335.582031 103.140625 337.847656 109.046875 339.773438 C 109.871094 340.097656 110.3125 338.804688 109.488281 338.484375 Z M 109.488281 338.484375 " fill-opacity="1" fill-rule="nonzero"/></g></g></g></g><g clip-path="url(#6861ddc82a)"><g clip-path="url(#cdd7756d0a)"><g clip-path="url(#9c822a8d84)"><g clip-path="url(#c9fb2fe68b)"><path fill="#d8c7dd" d="M 1387.71875 249.832031 C 1387.746094 253.082031 1387.445312 256.304688 1386.816406 259.496094 C 1386.261719 262.449219 1385.535156 265.363281 1384.640625 268.230469 C 1383.757812 270.980469 1382.558594 273.582031 1381.035156 276.03125 C 1379.507812 278.484375 1377.707031 280.710938 1375.632812 282.714844 L 1374.847656 282.835938 L 1366.632812 287.996094 L 1350.523438 298.269531 L 1330.492188 311.253906 L 1310.40625 323.921875 L 1294.140625 334.214844 L 1285.796875 339.558594 L 1285.480469 339.605469 C 1284.152344 340.207031 1282.761719 340.589844 1281.3125 340.746094 C 1279.722656 340.992188 1278.125 341.078125 1276.519531 341.011719 C 1274.917969 340.886719 1273.347656 340.585938 1271.816406 340.101562 C 1270.28125 339.621094 1268.824219 338.96875 1267.4375 338.148438 C 1266.054688 337.332031 1264.777344 336.367188 1263.613281 335.253906 C 1262.449219 334.144531 1261.425781 332.914062 1260.546875 331.566406 C 1257.53125 326.710938 1255.195312 319.007812 1259.609375 314.28125 C 1261.941406 312.257812 1264.539062 310.667969 1267.398438 309.507812 L 1273.078125 306.683594 L 1275.761719 305.296875 C 1276.621094 305.058594 1277.238281 304.53125 1277.605469 303.714844 C 1277.628906 302.269531 1277.566406 300.824219 1277.410156 299.386719 C 1277.507812 297.910156 1277.878906 296.507812 1278.523438 295.175781 C 1279.109375 293.792969 1279.890625 292.527344 1280.867188 291.382812 C 1281.839844 290.238281 1282.964844 289.269531 1284.238281 288.472656 C 1287.195312 286.734375 1290.386719 285.855469 1293.8125 285.84375 L 1296.5625 285.894531 C 1297.214844 285.957031 1298.414062 286.414062 1299.148438 285.976562 C 1299.886719 285.535156 1299.894531 284.566406 1299.953125 283.910156 L 1300.445312 281.898438 C 1300.878906 280.632812 1301.417969 279.410156 1302.050781 278.234375 C 1302.6875 277.058594 1303.414062 275.941406 1304.230469 274.882812 C 1305.046875 273.824219 1305.945312 272.839844 1306.925781 271.929688 C 1307.902344 271.019531 1308.949219 270.191406 1310.0625 269.453125 C 1311.175781 268.714844 1312.339844 268.070312 1313.558594 267.523438 C 1314.777344 266.972656 1316.03125 266.527344 1317.324219 266.1875 C 1318.613281 265.84375 1319.925781 265.609375 1321.253906 265.480469 C 1322.582031 265.351562 1323.914062 265.332031 1325.246094 265.421875 C 1325.4375 264.761719 1325.660156 264.109375 1325.921875 263.46875 C 1326.179688 262.828125 1326.472656 262.207031 1326.800781 261.597656 C 1327.128906 260.992188 1327.488281 260.402344 1327.878906 259.835938 C 1328.269531 259.265625 1328.691406 258.71875 1329.140625 258.199219 C 1329.589844 257.675781 1330.066406 257.175781 1330.570312 256.707031 C 1331.074219 256.234375 1331.601562 255.792969 1332.152344 255.378906 C 1332.703125 254.964844 1333.273438 254.582031 1333.867188 254.230469 C 1334.460938 253.878906 1335.070312 253.558594 1335.695312 253.273438 C 1336.324219 252.988281 1336.964844 252.738281 1337.621094 252.519531 C 1338.273438 252.304688 1338.9375 252.125 1339.613281 251.980469 C 1340.285156 251.835938 1340.964844 251.730469 1341.652344 251.660156 C 1342.335938 251.589844 1343.023438 251.554688 1343.710938 251.558594 C 1344.402344 251.5625 1345.089844 251.605469 1345.773438 251.683594 C 1346.457031 251.761719 1347.136719 251.878906 1347.808594 252.03125 C 1348.480469 252.183594 1349.144531 252.371094 1349.792969 252.59375 C 1350.445312 252.820312 1351.085938 253.078125 1351.707031 253.371094 C 1354.691406 247.738281 1358.644531 242.117188 1364.429688 238.949219 C 1365.535156 238.335938 1366.691406 237.84375 1367.898438 237.472656 C 1369.105469 237.101562 1370.339844 236.855469 1371.597656 236.742188 C 1372.855469 236.628906 1374.109375 236.648438 1375.363281 236.796875 C 1376.621094 236.945312 1377.84375 237.222656 1379.042969 237.628906 C 1381.335938 238.484375 1383.265625 239.847656 1384.839844 241.726562 C 1385.765625 242.871094 1386.476562 244.140625 1386.972656 245.53125 C 1387.464844 246.921875 1387.714844 248.355469 1387.71875 249.832031 Z M 1387.71875 249.832031 " fill-opacity="1" fill-rule="nonzero"/></g></g></g></g><g clip-path="url(#0a79da9850)"><g clip-path="url(#05c5e6c947)"><g clip-path="url(#4fb8446c4a)"><g clip-path="url(#ee2e0f3570)"><path fill="#e8d9ec" d="M 1383.007812 288.664062 C 1384.289062 305.085938 1378.773438 321.285156 1370.683594 335.464844 C 1368.769531 339.15625 1366.523438 342.628906 1363.941406 345.882812 C 1361.277344 348.859375 1358.160156 351.230469 1354.585938 353 C 1350.730469 354.734375 1346.765625 356.164062 1342.691406 357.28125 C 1338.429688 358.460938 1334.097656 359.246094 1329.691406 359.640625 C 1325.597656 360.164062 1321.492188 360.230469 1317.382812 359.839844 C 1313.273438 359.445312 1309.253906 358.609375 1305.328125 357.320312 C 1301.65625 356.21875 1298.210938 354.613281 1295.003906 352.507812 C 1291.796875 350.398438 1288.953125 347.875 1286.476562 344.9375 C 1282.03125 339.179688 1280.566406 330.851562 1286.117188 325.140625 C 1291.664062 319.429688 1297.523438 319.804688 1303.570312 319.339844 C 1303.667969 318.894531 1303.601562 318.476562 1303.371094 318.082031 C 1303.304688 317.984375 1303.261719 317.878906 1303.238281 317.765625 C 1303.21875 317.652344 1303.222656 317.535156 1303.25 317.421875 C 1303.28125 317.308594 1303.332031 317.207031 1303.402344 317.117188 C 1303.476562 317.027344 1303.566406 316.957031 1303.671875 316.90625 C 1303.410156 314.550781 1303.753906 312.292969 1304.703125 310.125 C 1305.636719 307.78125 1306.957031 305.679688 1308.664062 303.824219 C 1310.375 301.972656 1312.359375 300.488281 1314.617188 299.371094 C 1319.757812 296.824219 1325.191406 295.542969 1330.925781 295.527344 C 1331.4375 294.304688 1332.046875 293.132812 1332.75 292.015625 C 1333.453125 290.894531 1334.246094 289.839844 1335.125 288.851562 C 1336 287.859375 1336.953125 286.949219 1337.984375 286.117188 C 1339.011719 285.285156 1340.101562 284.542969 1341.25 283.894531 C 1342.398438 283.242188 1343.597656 282.6875 1344.835938 282.234375 C 1346.078125 281.78125 1347.347656 281.433594 1348.648438 281.1875 C 1349.945312 280.945312 1351.257812 280.808594 1352.578125 280.78125 C 1353.898438 280.753906 1355.214844 280.835938 1356.523438 281.027344 C 1356.855469 279.871094 1357.386719 278.820312 1358.121094 277.871094 C 1359.089844 276.574219 1360.226562 275.453125 1361.53125 274.507812 C 1362.839844 273.558594 1364.257812 272.828125 1365.789062 272.3125 C 1367.226562 271.699219 1368.714844 271.253906 1370.25 270.96875 C 1371.738281 270.9375 1373.210938 271.085938 1374.667969 271.40625 C 1375.878906 271.613281 1377.019531 272.027344 1378.082031 272.644531 C 1379.285156 273.730469 1380.082031 275.058594 1380.476562 276.628906 C 1381.871094 280.523438 1382.714844 284.535156 1383.007812 288.664062 Z M 1383.007812 288.664062 " fill-opacity="1" fill-rule="nonzero"/></g></g></g></g><g clip-path="url(#f8326ba408)"><g clip-path="url(#4dc6ed7139)"><g clip-path="url(#543f8e9473)"><g clip-path="url(#ba11807df1)"><path fill="#8f9977" d="M 1440.875 432.945312 C 1437.898438 448.375 1433.480469 463.378906 1427.628906 477.957031 C 1433.960938 485.867188 1441.132812 492.921875 1449.144531 499.125 L 1446.359375 502.949219 C 1438.019531 496.992188 1429.730469 488.28125 1421.6875 478.082031 L 1418.070312 478.644531 C 1410.636719 479.960938 1403.15625 480.265625 1395.636719 479.550781 C 1388.117188 478.839844 1380.824219 477.136719 1373.765625 474.445312 C 1367.3125 471.996094 1361.265625 468.777344 1355.625 464.796875 C 1349.980469 460.816406 1344.921875 456.195312 1340.445312 450.933594 C 1338.125 448.367188 1336.03125 445.628906 1334.164062 442.714844 C 1333.105469 441.105469 1332.023438 439.335938 1331.125 437.703125 C 1330.234375 436.007812 1329.578125 434.226562 1329.160156 432.359375 C 1328.75 428.710938 1332.640625 426.8125 1335.578125 426.03125 C 1339.335938 425.128906 1343.097656 425.132812 1346.855469 426.039062 C 1353.683594 427.570312 1360.347656 429.648438 1366.835938 432.273438 C 1373.238281 434.878906 1379.410156 437.949219 1385.351562 441.480469 C 1392.75 445.792969 1399.65625 450.789062 1406.0625 456.476562 C 1381.742188 419.445312 1361 374.429688 1352.9375 355.839844 C 1351.5 356.300781 1350.035156 356.59375 1348.53125 356.714844 C 1347.03125 356.832031 1345.535156 356.777344 1344.042969 356.550781 C 1342.554688 356.320312 1341.109375 355.921875 1339.714844 355.355469 C 1338.316406 354.792969 1337 354.074219 1335.769531 353.199219 C 1335.121094 352.792969 1334.578125 352.269531 1334.144531 351.636719 C 1333.710938 351.003906 1333.417969 350.3125 1333.269531 349.558594 C 1333.1875 348.921875 1333.273438 348.308594 1333.527344 347.71875 C 1333.78125 347.128906 1334.167969 346.644531 1334.6875 346.269531 C 1335.839844 345.484375 1337.109375 345.015625 1338.492188 344.863281 C 1340.066406 344.617188 1341.820312 344.503906 1342.699219 342.914062 C 1343.574219 341.324219 1344.339844 337.976562 1347.484375 337.484375 C 1350.628906 336.992188 1350.257812 337.695312 1351.671875 337.472656 C 1353.085938 337.253906 1353.941406 335.503906 1354.867188 334.230469 C 1355.796875 332.953125 1359.4375 329.480469 1362.457031 331.265625 C 1365.476562 333.054688 1366.019531 336.519531 1365.363281 339.527344 C 1364.78125 342.21875 1363.78125 344.742188 1362.355469 347.09375 C 1360.929688 349.449219 1359.15625 351.503906 1357.042969 353.257812 C 1365.691406 373.535156 1391.660156 430.320312 1420.777344 469.183594 C 1417.0625 452.65625 1413.949219 435.871094 1413.695312 418.800781 C 1413.699219 404.433594 1416.0625 389.699219 1422.046875 376.492188 C 1423.46875 373.210938 1425.179688 370.089844 1427.1875 367.132812 C 1428.597656 364.8125 1431.355469 360.832031 1434.503906 362.4375 C 1435.832031 363.316406 1436.71875 364.523438 1437.164062 366.054688 L 1439.023438 371.738281 C 1440.144531 375.6875 1441.039062 379.691406 1441.707031 383.746094 C 1443.027344 391.90625 1443.617188 400.117188 1443.476562 408.382812 C 1443.339844 416.648438 1442.472656 424.835938 1440.875 432.945312 Z M 1440.875 432.945312 " fill-opacity="1" fill-rule="nonzero"/></g></g></g></g><g clip-path="url(#5735a29c56)"><g clip-path="url(#27ef8345e1)"><g clip-path="url(#798df42c6b)"><path fill="#f28292" d="M 780.8125 211.253906 C 774.375 217.75 766.308594 222.273438 758.261719 226.558594 C 743.5625 234.414062 727.75 241.777344 711.1875 240.816406 C 705.367188 240.417969 699.496094 239 694.917969 235.40625 C 690.339844 231.808594 686.941406 225.148438 685.101562 218.929688 C 679.671875 200.800781 681.253906 180.933594 687.402344 162.988281 C 690.179688 154.96875 693.929688 147.210938 699.375 140.699219 C 710.976562 126.820312 730.578125 120.125 748.273438 124 L 747.855469 123.8125 C 755.316406 125.351562 762.277344 128.136719 768.738281 132.171875 C 773.449219 134.960938 777.722656 138.308594 781.550781 142.222656 C 782.644531 143.378906 783.683594 144.582031 784.664062 145.835938 C 785.640625 147.09375 786.558594 148.390625 787.414062 149.734375 C 788.265625 151.078125 789.054688 152.460938 789.777344 153.878906 C 790.496094 155.296875 791.148438 156.75 791.730469 158.230469 C 792.3125 159.710938 792.820312 161.21875 793.257812 162.75 C 793.695312 164.28125 794.058594 165.828125 794.34375 167.394531 C 794.632812 168.960938 794.84375 170.535156 794.980469 172.121094 C 795.117188 173.707031 795.175781 175.296875 795.160156 176.886719 C 795.140625 178.480469 795.046875 180.066406 794.878906 181.648438 C 794.707031 183.234375 794.464844 184.804688 794.140625 186.363281 C 793.820312 187.921875 793.425781 189.460938 792.957031 190.984375 C 792.488281 192.503906 791.945312 194 791.332031 195.46875 C 790.71875 196.9375 790.039062 198.375 789.285156 199.777344 C 788.535156 201.179688 787.71875 202.546875 786.835938 203.871094 C 785.953125 205.195312 785.007812 206.472656 784.003906 207.707031 C 782.996094 208.941406 781.933594 210.125 780.8125 211.253906 Z M 780.8125 211.253906 " fill-opacity="1" fill-rule="nonzero"/></g></g></g><g clip-path="url(#271fc13fae)"><g clip-path="url(#d17530e6f4)"><g clip-path="url(#f2bf90debd)"><path fill="#8f9977" d="M 800.90625 147.242188 C 799.308594 147.605469 797.695312 147.71875 796.066406 147.582031 C 794.433594 147.449219 792.863281 147.070312 791.347656 146.449219 C 792.980469 149.148438 793.886719 152.074219 794.0625 155.222656 C 794.195312 157.195312 794.367188 162.101562 791.066406 160.898438 C 787.765625 159.695312 784.925781 157.445312 782.394531 155.25 C 779.742188 152.894531 777.484375 150.207031 775.617188 147.1875 C 774.582031 145.566406 773.691406 143.425781 771.535156 143.226562 C 769.375 143.027344 767.179688 144.226562 765.304688 144.898438 L 753.496094 149.027344 C 751.042969 149.863281 747.121094 151.96875 744.832031 149.792969 C 742.539062 147.621094 743.609375 145.757812 744.476562 143.976562 C 745.34375 142.191406 748.066406 139.226562 750.304688 137.546875 C 752.5625 135.964844 755.019531 134.796875 757.671875 134.046875 C 754.65625 132.816406 751.863281 131.195312 749.292969 129.1875 C 746.726562 127.179688 744.480469 124.863281 742.554688 122.230469 C 742.429688 122.097656 742.414062 121.949219 742.5 121.789062 C 744.640625 118.820312 748.46875 118.253906 751.84375 118.910156 C 756.628906 119.765625 760.480469 123.125 765.148438 124.429688 C 763.871094 120.738281 763.5625 116.964844 764.21875 113.113281 C 764.574219 110.605469 765.597656 105.0625 769.050781 105.164062 C 772.5 105.269531 773.925781 109.976562 774.601562 112.605469 C 775.546875 116.648438 775.964844 120.742188 775.855469 124.894531 C 777.144531 124.046875 778.441406 123.367188 779.660156 122.488281 C 795.445312 111.785156 801.347656 90.984375 799.191406 72.800781 C 798.714844 67.921875 797.570312 63.199219 795.765625 58.640625 C 794.660156 55.882812 792.964844 53.554688 790.679688 51.65625 C 788.335938 49.9375 785.789062 48.59375 783.042969 47.628906 C 771.769531 43.164062 760.160156 38.890625 748.296875 36.335938 C 736.433594 33.777344 724.792969 32.984375 713.34375 29.863281 C 711.789062 29.425781 710.300781 29.023438 708.875 28.476562 C 707.746094 29.050781 706.789062 29.835938 706.003906 30.828125 C 705.21875 31.820312 704.675781 32.929688 704.375 34.160156 L 705.714844 35.664062 C 709.46875 40.5625 709.632812 47.378906 707.585938 52.972656 C 705.542969 58.566406 699.613281 64.285156 693.410156 67.21875 C 687.207031 70.148438 678.382812 71.847656 670.632812 72.429688 C 666.453125 72.769531 662.269531 72.816406 658.082031 72.570312 C 653.722656 72.238281 649.394531 71.664062 645.097656 70.855469 C 640.761719 70.113281 636.457031 69.300781 632.023438 69.347656 C 627.777344 69.328125 623.621094 69.945312 619.558594 71.1875 C 619.285156 71.234375 618.898438 70.980469 619.121094 70.664062 C 619.34375 70.34375 620.191406 68.800781 620.761719 67.886719 C 625.246094 60.535156 629.589844 53.121094 634.144531 45.800781 C 638.699219 38.480469 642.714844 32.753906 648.609375 27.6875 C 651.222656 25.402344 654.074219 23.457031 657.15625 21.859375 C 660.238281 20.257812 663.46875 19.046875 666.84375 18.226562 C 670.316406 17.394531 673.832031 17.121094 677.390625 17.40625 C 680.949219 17.691406 684.378906 18.523438 687.671875 19.898438 C 689.316406 20.550781 690.867188 21.375 692.332031 22.363281 C 693.871094 23.429688 695.328125 24.597656 696.703125 25.867188 C 698.160156 27.09375 699.71875 28.28125 701.640625 28.457031 C 702.289062 28.53125 702.921875 28.453125 703.539062 28.226562 C 704.152344 27.996094 704.679688 27.640625 705.125 27.160156 C 698.21875 24.378906 692.085938 20.402344 686.726562 15.234375 C 673.996094 2.722656 666.617188 -14.179688 653.6875 -26.613281 C 647.171875 -32.8125 639.230469 -37.472656 630.105469 -38.492188 C 627.699219 -38.765625 625.292969 -38.804688 622.882812 -38.609375 C 620.472656 -38.417969 618.105469 -37.996094 615.777344 -37.339844 C 613.449219 -36.6875 611.203125 -35.820312 609.046875 -34.730469 C 606.886719 -33.644531 604.851562 -32.359375 602.941406 -30.878906 C 602.546875 -30.550781 602.140625 -31.144531 602.535156 -31.472656 L 603.191406 -32.015625 L 609.164062 -42.375 C 609.109375 -42.414062 609.070312 -42.460938 609.039062 -42.519531 C 609.011719 -42.582031 608.996094 -42.644531 609 -42.710938 C 609.003906 -42.777344 609.023438 -42.839844 609.058594 -42.894531 C 609.097656 -42.949219 609.144531 -42.996094 609.203125 -43.027344 C 611.15625 -44.046875 613.199219 -44.839844 615.328125 -45.40625 C 623.609375 -47.761719 632.496094 -46.761719 640.523438 -43.8125 C 649.796875 -40.480469 657.695312 -34.589844 664.421875 -27.550781 C 671.148438 -20.511719 678.152344 -10.6875 684.417969 -1.851562 C 687.648438 2.734375 690.84375 7.390625 694.890625 11.25 C 699.15625 15.324219 704.0625 18.371094 709.605469 20.390625 C 720.5625 24.628906 732.375 26.164062 743.925781 27.917969 C 749.773438 28.824219 755.6875 29.761719 761.519531 31.078125 C 761.902344 30.582031 762.457031 30.078125 762.945312 29.539062 C 764.972656 27.769531 767.667969 26.375 768.945312 23.855469 C 770.21875 21.335938 769.285156 17.59375 769.542969 14.542969 C 769.652344 13.164062 769.90625 11.8125 770.296875 10.488281 C 770.6875 9.164062 771.214844 7.890625 771.871094 6.675781 C 772.527344 5.460938 773.304688 4.324219 774.195312 3.269531 C 775.089844 2.214844 776.082031 1.265625 777.175781 0.417969 C 779.5 -1.347656 782.09375 -2.507812 784.953125 -3.070312 C 788.125 -3.839844 791.457031 -4.039062 794.582031 -5.078125 C 797.65625 -6.050781 800.28125 -7.726562 802.457031 -10.105469 C 803.472656 -11.292969 804.363281 -12.566406 805.132812 -13.925781 C 805.652344 -15.035156 806.234375 -16.109375 806.886719 -17.148438 C 807.488281 -18.085938 808.296875 -18.785156 809.308594 -19.246094 C 809.804688 -19.464844 810.320312 -19.523438 810.855469 -19.425781 C 811.386719 -19.328125 811.847656 -19.085938 812.234375 -18.707031 C 813.347656 -17.636719 813.707031 -15.8125 814.1875 -14.4375 L 816.0625 -8.863281 L 819.703125 1.976562 C 820.78125 5.199219 821.898438 8.523438 822.238281 11.921875 C 822.378906 13.503906 822.363281 15.089844 822.191406 16.671875 C 822.019531 18.253906 821.695312 19.804688 821.222656 21.324219 C 820.746094 22.84375 820.125 24.300781 819.363281 25.699219 C 818.601562 27.097656 817.710938 28.40625 816.691406 29.628906 C 814.789062 31.84375 812.554688 33.648438 809.988281 35.042969 C 807.425781 36.4375 804.695312 37.335938 801.804688 37.730469 C 795.058594 38.675781 788.597656 36.332031 782.558594 33.59375 C 779.449219 32.140625 776.1875 30.289062 772.605469 30.292969 C 771.554688 30.289062 770.539062 30.472656 769.554688 30.84375 C 768.574219 31.214844 767.691406 31.75 766.910156 32.449219 C 770.011719 33.304688 773.054688 34.339844 776.035156 35.550781 C 785.535156 39.316406 794.449219 44.984375 800.523438 53.320312 C 803.140625 57 805.207031 60.96875 806.714844 65.226562 C 808.222656 69.484375 809.117188 73.867188 809.398438 78.375 C 810.78125 98.882812 799.738281 117.921875 784.183594 130.558594 C 784.878906 131.046875 785.625 131.429688 786.425781 131.710938 L 789.613281 133.363281 L 796.078125 136.457031 L 802.542969 139.554688 C 803.695312 140.144531 805.03125 140.898438 805.667969 142.09375 C 807.421875 145.113281 803.132812 146.722656 800.90625 147.242188 Z M 800.90625 147.242188 " fill-opacity="1" fill-rule="nonzero"/></g></g></g><g clip-path="url(#d243acc5cb)"><g clip-path="url(#7dfa9cb8b3)"><g clip-path="url(#66c8c45316)"><path fill="#faeee0" d="M 722.4375 147.515625 C 722.3125 148.050781 722.066406 148.527344 721.707031 148.941406 C 721.347656 149.359375 720.914062 149.667969 720.402344 149.867188 C 719.621094 150.226562 718.816406 150.289062 717.988281 150.054688 C 717.511719 149.953125 717.058594 149.78125 716.632812 149.542969 L 715.46875 148.78125 C 715.070312 148.542969 714.742188 148.230469 714.488281 147.839844 C 714.238281 147.453125 714.082031 147.027344 714.03125 146.5625 C 713.984375 146.144531 714.046875 145.742188 714.214844 145.355469 C 714.386719 144.96875 714.640625 144.652344 714.980469 144.402344 C 715.328125 144.164062 715.707031 143.996094 716.117188 143.902344 C 716.933594 143.660156 717.761719 143.609375 718.601562 143.746094 L 718.667969 143.777344 C 719.308594 143.679688 719.925781 143.761719 720.519531 144.023438 C 721.109375 144.285156 721.585938 144.683594 721.949219 145.21875 C 722.421875 145.917969 722.582031 146.683594 722.4375 147.515625 Z M 699.75 162.929688 C 699.542969 162.160156 699.125 161.535156 698.5 161.046875 C 697.953125 160.652344 697.359375 160.363281 696.714844 160.175781 C 696.242188 160.058594 695.761719 160.015625 695.277344 160.042969 C 694.738281 160.085938 694.246094 160.257812 693.800781 160.558594 C 693.378906 160.863281 693.046875 161.246094 692.796875 161.699219 C 692.675781 161.980469 692.652344 162.21875 692.5625 162.429688 L 692.523438 163.078125 C 692.59375 163.109375 692.5625 163.179688 692.53125 163.25 C 692.675781 163.957031 693.035156 164.53125 693.605469 164.96875 L 694.792969 165.492188 C 695.1875 165.621094 695.589844 165.71875 696 165.773438 C 696.945312 165.847656 697.847656 165.691406 698.707031 165.300781 C 699.222656 165.121094 699.59375 164.785156 699.816406 164.289062 L 700.003906 163.871094 C 700.019531 163.53125 699.933594 163.214844 699.75 162.929688 Z M 724.4375 180.621094 C 724.863281 180.136719 724.992188 179.585938 724.835938 178.960938 C 724.679688 178.386719 724.339844 177.960938 723.816406 177.679688 C 723.601562 177.277344 723.292969 176.976562 722.882812 176.773438 L 722.464844 176.585938 C 722.117188 176.492188 721.789062 176.542969 721.484375 176.738281 L 718.957031 177.375 C 718.355469 177.5625 717.847656 177.894531 717.433594 178.371094 C 717.125 178.726562 716.917969 179.136719 716.8125 179.59375 C 716.742188 179.941406 716.757812 180.28125 716.863281 180.617188 C 717.03125 181.199219 717.351562 181.683594 717.816406 182.070312 C 718.285156 182.460938 718.820312 182.683594 719.425781 182.742188 C 719.867188 182.828125 720.3125 182.832031 720.753906 182.746094 L 722.070312 182.40625 C 723.007812 182.011719 723.796875 181.414062 724.4375 180.621094 Z M 700.183594 194.675781 C 699.785156 194.335938 699.320312 194.1875 698.796875 194.230469 C 697.785156 194.375 696.832031 194.691406 695.9375 195.191406 C 695.046875 195.6875 694.269531 196.328125 693.617188 197.113281 C 693.25 197.546875 693.117188 198.042969 693.210938 198.601562 C 693.257812 199.121094 693.492188 199.53125 693.921875 199.828125 L 695.316406 200.441406 L 696.445312 200.523438 C 697.199219 200.507812 697.882812 200.28125 698.492188 199.84375 C 699.050781 199.546875 699.484375 199.128906 699.796875 198.585938 C 699.960938 198.382812 700.085938 198.160156 700.175781 197.917969 L 700.390625 197.429688 C 700.734375 197.003906 700.890625 196.519531 700.863281 195.972656 C 700.800781 195.453125 700.574219 195.023438 700.183594 194.675781 Z M 713.328125 218.359375 C 712.722656 218.125 712.101562 217.960938 711.460938 217.871094 C 711.085938 217.851562 710.722656 217.914062 710.375 218.0625 C 709.066406 218.019531 707.816406 218.273438 706.625 218.824219 C 705.953125 219.125 705.535156 219.636719 705.371094 220.355469 C 705.3125 220.691406 705.351562 221.015625 705.484375 221.332031 C 705.617188 221.644531 705.824219 221.898438 706.105469 222.09375 C 707.128906 222.78125 708.234375 223.296875 709.421875 223.636719 L 710.761719 223.808594 C 711.339844 223.902344 711.921875 223.90625 712.503906 223.824219 C 713.351562 223.765625 714.039062 223.402344 714.566406 222.734375 C 714.828125 222.351562 714.988281 221.929688 715.046875 221.46875 C 715.101562 221.007812 715.046875 220.558594 714.878906 220.125 C 714.601562 219.328125 714.082031 218.738281 713.328125 218.359375 Z M 744.738281 202.792969 L 744.800781 202.652344 C 744.859375 202.15625 744.757812 201.695312 744.492188 201.269531 L 744.425781 201.238281 C 744.1875 200.902344 743.878906 200.65625 743.5 200.496094 C 743.273438 200.324219 743.019531 200.269531 742.742188 200.332031 L 742.03125 200.433594 C 742 200.503906 741.929688 200.472656 741.898438 200.542969 L 741.828125 200.511719 L 740.988281 200.722656 L 740.222656 201.136719 C 739.816406 201.359375 739.46875 201.652344 739.171875 202.007812 C 739.105469 202.117188 739.03125 202.222656 738.949219 202.324219 C 738.769531 202.574219 738.625 202.84375 738.511719 203.132812 C 738.421875 203.292969 738.371094 203.464844 738.367188 203.652344 C 738.296875 203.902344 738.296875 204.152344 738.371094 204.402344 L 738.59375 204.832031 C 738.671875 205.066406 738.816406 205.242188 739.03125 205.359375 C 739.269531 205.652344 739.574219 205.839844 739.945312 205.925781 C 740.25 206.085938 740.570312 206.171875 740.914062 206.1875 L 741.664062 206.183594 L 742.375 206.082031 L 743.242188 205.628906 C 743.550781 205.441406 743.800781 205.1875 743.988281 204.875 C 744.199219 204.613281 744.378906 204.332031 744.527344 204.03125 C 744.550781 203.789062 744.671875 203.511719 744.695312 203.273438 C 744.71875 203.03125 744.746094 202.960938 744.738281 202.792969 Z M 759.199219 172.769531 L 759.066406 172.128906 L 758.660156 171.53125 L 758.015625 170.917969 C 758.035156 170.859375 758.035156 170.800781 758.007812 170.746094 C 757.816406 170.242188 757.480469 169.875 757 169.636719 C 756.496094 169.480469 755.996094 169.484375 755.496094 169.640625 C 755.167969 169.816406 754.894531 170.058594 754.679688 170.363281 L 754.539062 170.300781 L 753.628906 170.484375 L 753.226562 170.640625 C 752.660156 170.910156 752.167969 171.273438 751.742188 171.738281 C 751.40625 172.136719 751.257812 172.601562 751.300781 173.125 C 751.402344 173.621094 751.628906 174.054688 751.976562 174.421875 L 753.003906 175.121094 L 753.769531 175.457031 C 754.5625 175.722656 755.375 175.832031 756.207031 175.78125 C 757.207031 175.757812 758.039062 175.375 758.710938 174.636719 C 758.902344 174.363281 759.058594 174.070312 759.179688 173.757812 C 759.261719 173.429688 759.269531 173.101562 759.199219 172.769531 Z M 769.101562 156.894531 C 769.476562 157.117188 769.882812 157.269531 770.316406 157.34375 L 770.726562 157.359375 L 771.617188 157.417969 C 772.171875 157.300781 772.683594 157.082031 773.152344 156.761719 C 773.625 156.429688 773.976562 156.003906 774.21875 155.480469 C 774.34375 155.226562 774.433594 154.960938 774.484375 154.683594 C 774.546875 154.542969 774.507812 154.445312 774.570312 154.304688 C 774.613281 153.738281 774.550781 153.183594 774.386719 152.640625 C 774.191406 152.089844 773.871094 151.628906 773.425781 151.253906 C 772.980469 150.878906 772.46875 150.640625 771.894531 150.546875 C 771.371094 150.484375 770.898438 150.609375 770.480469 150.921875 L 770.410156 150.890625 L 769.296875 151.152344 C 768.511719 151.511719 767.84375 152.019531 767.289062 152.683594 C 767.074219 152.949219 766.945312 153.253906 766.898438 153.59375 C 766.855469 153.933594 766.902344 154.257812 767.039062 154.570312 C 767.191406 154.992188 767.414062 155.367188 767.710938 155.699219 L 768.355469 156.316406 Z M 789.035156 176.488281 L 788.632812 175.894531 C 788.59375 175.617188 788.476562 175.371094 788.289062 175.160156 C 788.15625 174.941406 787.988281 174.757812 787.78125 174.605469 C 787.621094 174.386719 787.410156 174.238281 787.148438 174.160156 C 786.84375 174 786.519531 173.914062 786.179688 173.898438 C 785.683594 173.832031 785.195312 173.867188 784.714844 174.007812 C 784.453125 174.058594 784.234375 174.183594 784.050781 174.378906 L 783.425781 174.855469 C 783.222656 175.125 783.089844 175.429688 783.027344 175.761719 C 783.019531 176.023438 783.042969 176.285156 783.101562 176.542969 C 783.179688 176.742188 783.226562 177.015625 783.40625 177.175781 C 783.609375 177.46875 783.871094 177.695312 784.1875 177.855469 L 786.492188 178.867188 C 786.746094 178.976562 787.007812 179.007812 787.28125 178.964844 C 787.527344 178.996094 787.765625 178.960938 787.992188 178.863281 C 788.21875 178.769531 788.417969 178.636719 788.585938 178.457031 C 788.753906 178.289062 788.894531 178.101562 789 177.890625 C 789.214844 177.429688 789.226562 176.960938 789.035156 176.488281 Z M 777.109375 199.050781 C 776.683594 198.695312 776.195312 198.480469 775.644531 198.40625 L 774.683594 198.316406 L 774.242188 198.371094 C 773.699219 198.339844 773.167969 198.410156 772.648438 198.585938 C 771.714844 198.925781 771.054688 199.546875 770.660156 200.460938 C 770.515625 200.851562 770.476562 201.25 770.550781 201.660156 C 770.6875 202.046875 770.898438 202.390625 771.179688 202.6875 L 772.101562 203.425781 C 772.515625 203.789062 772.984375 204.050781 773.507812 204.210938 C 774.09375 204.441406 774.699219 204.511719 775.324219 204.429688 C 775.890625 204.335938 776.40625 204.117188 776.863281 203.773438 C 777.324219 203.433594 777.671875 203.003906 777.902344 202.480469 C 778.128906 201.957031 778.214844 201.410156 778.152344 200.84375 C 778.039062 200.109375 777.691406 199.511719 777.109375 199.050781 Z M 741.617188 228.808594 C 740.785156 228.222656 739.863281 227.984375 738.851562 228.09375 C 738.324219 228.152344 737.820312 228.289062 737.335938 228.507812 C 736.878906 228.515625 736.457031 228.648438 736.074219 228.902344 C 735.691406 229.15625 735.40625 229.492188 735.222656 229.910156 C 734.988281 230.390625 734.902344 230.894531 734.972656 231.425781 C 735.042969 231.953125 735.253906 232.421875 735.601562 232.824219 C 736.195312 233.636719 736.992188 234.097656 737.992188 234.210938 L 739.910156 234.386719 C 740.804688 234.328125 741.550781 233.960938 742.144531 233.289062 C 743.445312 232.03125 742.898438 229.875 741.617188 228.808594 Z M 741.617188 228.808594 " fill-opacity="1" fill-rule="nonzero"/></g></g></g><g clip-path="url(#50ac761a9f)"><g clip-path="url(#78dd1e60e4)"><g clip-path="url(#f8523a291e)"><path fill="#818967" d="M 699.5625 40.367188 C 699.246094 48.363281 697.914062 56.1875 695.5625 63.835938 C 695.417969 64.355469 694.691406 64.117188 694.875 63.699219 C 695.484375 61.554688 696.097656 59.40625 696.570312 57.199219 C 698.304688 49.59375 699.03125 41.890625 698.742188 34.09375 C 695.382812 35.863281 691.984375 37.53125 688.554688 39.269531 L 688.601562 39.539062 C 688.664062 39.652344 688.671875 39.765625 688.621094 39.882812 C 688.742188 41.683594 688.796875 43.457031 688.816406 45.296875 C 688.96875 52.457031 688.394531 59.5625 687.101562 66.605469 C 687.027344 67.15625 686.265625 66.988281 686.34375 66.4375 C 686.722656 64.441406 687 62.480469 687.3125 60.453125 C 688.140625 53.636719 688.316406 46.804688 687.839844 39.953125 L 687.421875 39.769531 C 687.261719 39.925781 687.070312 40.039062 686.855469 40.105469 C 681.789062 42.539062 676.722656 44.96875 671.617188 47.300781 C 671.746094 47.339844 671.820312 47.429688 671.832031 47.566406 C 671.816406 49.304688 671.769531 51.117188 671.683594 52.828125 C 671.59375 55.867188 671.265625 58.886719 670.933594 61.90625 C 670.699219 63.386719 670.535156 64.894531 670.199219 66.414062 C 669.867188 67.929688 669.910156 69.53125 668.808594 68.632812 C 668.714844 68.578125 668.65625 68.503906 668.628906 68.398438 C 668.597656 68.296875 668.609375 68.203125 668.664062 68.109375 C 668.714844 68.015625 668.792969 67.957031 668.894531 67.929688 C 668.996094 67.898438 669.09375 67.914062 669.183594 67.964844 C 669.246094 67.824219 669.207031 67.722656 669.238281 67.65625 C 669.269531 67.585938 669.351562 67.207031 669.375 66.964844 C 669.398438 66.726562 669.503906 66.105469 669.585938 65.726562 L 669.972656 63.148438 C 670.230469 61.429688 670.386719 59.75 670.570312 58 C 670.914062 54.570312 671.050781 51.050781 671.050781 47.636719 L 671.113281 47.496094 L 659.324219 52.71875 C 658.03125 57.933594 657.175781 63.21875 656.761719 68.574219 C 656.714844 69.054688 655.933594 69.128906 655.980469 68.648438 C 656.445312 63.398438 657.261719 58.207031 658.421875 53.070312 L 657.71875 53.34375 C 653.507812 55.152344 649.257812 56.863281 645.007812 58.574219 C 644.171875 61.039062 643.480469 63.5625 642.882812 66.050781 C 642.839844 66.527344 642.082031 66.363281 642.195312 65.914062 C 642.675781 63.566406 643.300781 61.261719 644.074219 58.996094 C 638.648438 61.105469 633.253906 63.144531 627.824219 65.082031 C 627.390625 65.308594 627.148438 64.535156 627.617188 64.410156 L 643.597656 58.371094 C 640.109375 56.835938 636.632812 55.472656 633.152344 54.105469 C 632.734375 53.921875 633.078125 53.324219 633.527344 53.441406 C 637.21875 54.894531 640.90625 56.351562 644.601562 57.980469 C 649.15625 56.152344 653.667969 54.222656 658.179688 52.296875 C 650.78125 50.375 643.382812 48.449219 636.339844 45.351562 C 635.921875 45.167969 636.226562 44.46875 636.714844 44.683594 C 643.902344 47.84375 651.539062 49.789062 659.074219 51.773438 L 659.28125 51.867188 C 662.890625 50.289062 666.570312 48.746094 670.207031 47.097656 L 664.636719 44.8125 C 656.839844 41.714844 649.640625 38.964844 641.875 35.796875 C 641.425781 35.683594 641.933594 34.90625 642.453125 35.050781 L 648.304688 37.460938 L 671.171875 46.609375 L 673.976562 45.34375 C 678.148438 43.433594 682.382812 41.382812 686.542969 39.300781 L 679.277344 36.519531 C 673.929688 34.664062 668.5 33.191406 663.070312 31.71875 L 648.84375 28.289062 C 648.394531 28.175781 649.109375 27.492188 649.558594 27.605469 L 656.257812 29.222656 C 666.769531 32.015625 677.34375 34.667969 687.449219 38.949219 L 698.371094 33.429688 L 690.28125 30.621094 C 679.765625 27.078125 669.765625 24.257812 658.957031 21.582031 C 658.4375 21.4375 659.472656 20.976562 659.921875 21.089844 C 662.996094 21.859375 664.40625 22.066406 667.449219 22.90625 C 678.167969 25.789062 688.8125 29.226562 699.265625 32.910156 L 702.5625 31.28125 C 702.65625 31.226562 702.75 31.214844 702.851562 31.246094 C 702.953125 31.273438 703.03125 31.332031 703.082031 31.425781 C 703.132812 31.515625 703.144531 31.613281 703.117188 31.714844 C 703.089844 31.816406 703.027344 31.890625 702.9375 31.945312 L 699.507812 33.683594 C 699.617188 35.894531 699.625 38.144531 699.5625 40.367188 Z M 820.273438 16.382812 L 799.046875 16.371094 L 793.585938 16.296875 L 795.441406 14.535156 C 798.636719 11.390625 801.5625 8.015625 804.226562 4.410156 L 804.367188 4.472656 C 810.105469 3.917969 815.824219 3.601562 821.578125 3.386719 C 822.089844 3.363281 822.015625 2.582031 821.507812 2.605469 C 815.921875 2.8125 810.273438 3.15625 804.703125 3.703125 C 806.894531 0.65625 808.851562 -2.535156 810.582031 -5.867188 C 811.703125 -8.035156 812.753906 -10.238281 813.667969 -12.5 C 814.058594 -13.277344 814.167969 -14.089844 813.992188 -14.9375 C 813.976562 -15.300781 813.808594 -15.558594 813.484375 -15.71875 C 813.160156 -15.878906 812.851562 -15.859375 812.554688 -15.652344 C 812.125 -15.425781 812.597656 -14.800781 812.960938 -15.058594 C 813.324219 -15.316406 813.289062 -14.664062 813.328125 -14.566406 C 813.398438 -14.183594 813.347656 -13.816406 813.175781 -13.464844 C 812.847656 -12.527344 812.449219 -11.621094 812.019531 -10.644531 C 811.589844 -9.667969 810.351562 -7.046875 809.414062 -5.296875 C 807.941406 -2.558594 806.308594 0.0820312 804.515625 2.621094 C 804.953125 -1.902344 805.546875 -6.472656 806.296875 -11.082031 C 806.414062 -11.53125 805.652344 -11.695312 805.578125 -11.148438 C 804.710938 -6.53125 804.15625 -1.863281 803.742188 2.863281 C 803.707031 2.96875 803.726562 3.066406 803.796875 3.148438 C 803.867188 3.234375 803.957031 3.269531 804.066406 3.257812 C 803.734375 3.8125 803.359375 4.34375 802.953125 4.847656 C 799.972656 8.824219 796.660156 12.503906 793.019531 15.882812 C 793.257812 9.394531 792.816406 2.957031 791.691406 -3.4375 C 791.566406 -3.90625 790.785156 -3.835938 790.882812 -3.292969 C 792.105469 3.285156 792.546875 9.917969 792.199219 16.605469 C 790.496094 18.019531 788.722656 19.402344 786.90625 20.683594 C 784.964844 22.007812 782.929688 23.167969 780.800781 24.160156 L 780.730469 24.128906 C 780.851562 23.847656 780.671875 23.6875 780.464844 23.59375 C 780.773438 17.070312 780.195312 10.628906 778.730469 4.265625 C 778.671875 3.824219 777.890625 3.894531 778.019531 4.367188 C 779.542969 11.003906 780.113281 17.722656 779.726562 24.519531 C 778.589844 25.027344 777.429688 25.460938 776.238281 25.816406 C 776.132812 25.851562 776.054688 25.917969 776.003906 26.015625 C 775.953125 26.113281 775.941406 26.21875 775.976562 26.324219 C 776.007812 26.429688 776.074219 26.507812 776.175781 26.5625 C 776.273438 26.613281 776.375 26.621094 776.484375 26.589844 C 777.984375 26.089844 779.457031 25.519531 780.902344 24.871094 C 787.773438 26.476562 794.734375 27.875 801.679688 28.933594 C 803.703125 29.125 805.671875 29.574219 807.578125 30.28125 C 807.675781 30.324219 807.773438 30.328125 807.871094 30.289062 C 807.96875 30.25 808.039062 30.183594 808.082031 30.085938 C 808.125 29.992188 808.125 29.894531 808.089844 29.796875 C 808.050781 29.695312 807.984375 29.625 807.886719 29.585938 C 806.261719 28.953125 804.578125 28.546875 802.84375 28.363281 L 797.480469 27.503906 L 786.800781 25.46875 L 782.039062 24.371094 C 785.871094 22.4375 789.390625 20.046875 792.605469 17.199219 C 792.773438 17.191406 792.875 17.152344 792.9375 17.011719 L 793.078125 17.074219 L 814.308594 17.257812 L 820.34375 17.164062 C 820.855469 17.140625 820.785156 16.359375 820.273438 16.382812 Z M 820.273438 16.382812 " fill-opacity="1" fill-rule="nonzero"/></g></g></g><g clip-path="url(#85d91a8f48)"><path fill="#fad3db" d="M 1141.714844 712.296875 C 1140.875 713.824219 1139.039062 714.4375 1137.585938 714.972656 C 1136.132812 715.507812 1133.609375 716.351562 1131.773438 717.113281 C 1128.007812 718.597656 1124.339844 720.277344 1120.757812 722.164062 C 1118.386719 723.386719 1116.015625 724.839844 1113.800781 726.140625 L 1110.355469 728.207031 C 1107.679688 729.734375 1103.625 731.722656 1099.265625 730.882812 C 1094.90625 730.039062 1092.917969 728.433594 1090.011719 726.675781 L 1088.328125 725.679688 C 1081.292969 721.550781 1074.179688 717.113281 1067.21875 712.527344 C 1060.257812 707.9375 1053.296875 703.117188 1046.566406 698.144531 L 1036.625 690.652344 L 1034.175781 688.738281 C 1032.085938 687.207031 1030.023438 685.601562 1027.980469 683.921875 C 1024.003906 680.707031 1019.1875 676.347656 1016.125 670.457031 L 1016.125 670.6875 C 1015.898438 672.523438 1014.980469 673.59375 1013.527344 673.902344 C 1012.53125 673.96875 1011.5625 673.839844 1010.621094 673.519531 L 1001.363281 670.917969 L 998.535156 670.074219 L 996.699219 673.671875 L 982.625 700.898438 L 977.730469 710.460938 L 968.171875 728.894531 C 967.945312 729.417969 967.691406 729.929688 967.40625 730.421875 C 966.945312 731.417969 966.410156 732.410156 965.875 733.40625 C 965.3125 734.578125 964.597656 735.648438 963.734375 736.617188 C 962.917969 737.625 961.898438 738.335938 960.675781 738.761719 C 960.097656 738.917969 959.511719 738.992188 958.914062 738.988281 C 957.988281 738.988281 957.09375 738.8125 956.238281 738.453125 L 953.027344 737.308594 C 951.113281 736.542969 949.046875 735.777344 947.058594 735.164062 C 943.847656 734.09375 940.636719 733.175781 937.421875 732.335938 C 934.210938 731.496094 931 730.730469 927.863281 730.117188 L 920.902344 729.046875 L 918.148438 728.585938 C 917.351562 728.570312 916.691406 728.261719 916.160156 727.667969 C 915.957031 727.375 915.84375 727.050781 915.816406 726.695312 C 915.789062 726.339844 915.851562 726.003906 916.007812 725.679688 C 916.246094 725.089844 916.578125 724.554688 917 724.074219 L 917.308594 723.691406 L 918.683594 721.78125 L 924.265625 714.054688 L 935.96875 698.527344 C 943.617188 688.585938 951.34375 678.71875 958.914062 669.386719 L 953.410156 669.921875 C 950.085938 670.414062 946.746094 670.59375 943.390625 670.457031 L 941.628906 670.457031 C 936.503906 669.695312 931.761719 667.550781 927.097656 665.488281 L 922.585938 663.5 C 919.554688 662.222656 916.417969 661.304688 913.175781 660.746094 L 912.71875 660.746094 C 909.964844 660.285156 906.828125 659.75 904.535156 657.761719 C 902.238281 655.773438 901.398438 652.789062 901.550781 648.8125 C 901.628906 647.359375 901.855469 645.90625 902.011719 644.453125 L 903.691406 631.449219 C 903.769531 631.144531 903.769531 630.914062 903.84375 630.609375 C 903.882812 629.199219 904.238281 627.871094 904.917969 626.632812 C 905.910156 625.101562 907.667969 624.796875 909.429688 624.644531 C 911.1875 624.492188 913.253906 624.335938 915.164062 624.335938 C 922.847656 624.207031 930.394531 625.152344 937.804688 627.167969 C 944.996094 629.15625 951.648438 632.214844 958.378906 635.503906 C 965.109375 638.792969 971.382812 641.699219 978.265625 643.304688 L 980.867188 643.917969 C 985.226562 644.835938 989.738281 645.832031 993.488281 648.203125 C 993.570312 646.914062 993.976562 645.742188 994.710938 644.683594 C 995.78125 643.460938 997.234375 643.460938 998.613281 643.460938 L 999.683594 643.460938 C 1001.117188 643.273438 1002.519531 642.941406 1003.890625 642.464844 L 1004.347656 642.3125 C 1005.988281 641.746094 1007.671875 641.363281 1009.394531 641.164062 C 1010.316406 641.144531 1011.234375 641.195312 1012.148438 641.316406 C 1012.464844 641.417969 1012.773438 641.390625 1013.066406 641.242188 L 1013.601562 640.933594 L 1013.984375 640.628906 C 1014.667969 640.203125 1015.414062 639.976562 1016.222656 639.949219 C 1017.027344 639.921875 1017.785156 640.097656 1018.496094 640.476562 C 1019.121094 640.789062 1019.617188 641.242188 1019.988281 641.832031 C 1020.359375 642.421875 1020.550781 643.066406 1020.5625 643.765625 L 1021.097656 644.222656 L 1025.152344 642.003906 C 1031.425781 638.640625 1037.847656 635.351562 1044.195312 632.214844 C 1050.546875 629.078125 1057.199219 626.171875 1063.699219 623.417969 C 1070.203125 620.667969 1076.933594 617.914062 1083.585938 615.464844 L 1084.65625 615.082031 C 1087.640625 613.9375 1090.699219 612.789062 1093.757812 611.792969 C 1096.820312 610.800781 1097.355469 611.488281 1098.425781 612.636719 C 1099.234375 613.660156 1099.796875 614.808594 1100.109375 616.078125 C 1100.222656 616.328125 1100.324219 616.582031 1100.414062 616.84375 L 1108.140625 638.179688 L 1108.597656 639.480469 C 1109.121094 640.695312 1109.527344 641.941406 1109.820312 643.230469 C 1109.949219 643.617188 1110.015625 644.015625 1110.011719 644.421875 C 1110.011719 644.832031 1109.945312 645.230469 1109.8125 645.613281 C 1109.683594 646 1109.492188 646.355469 1109.246094 646.683594 C 1109 647.007812 1108.707031 647.285156 1108.367188 647.511719 C 1107.308594 648.195312 1106.1875 648.757812 1105.003906 649.195312 L 1103.855469 649.730469 L 1098.808594 651.949219 C 1091.160156 655.3125 1084.734375 657.839844 1078.769531 660.054688 C 1074.484375 661.585938 1070.507812 662.964844 1066.53125 664.109375 L 1070.203125 665.871094 C 1077.542969 669.539062 1084.964844 673.441406 1092.304688 677.648438 C 1099.648438 681.855469 1106.839844 686.136719 1113.953125 690.726562 C 1121.066406 695.316406 1127.871094 699.90625 1134.527344 704.648438 L 1139.574219 708.320312 L 1139.878906 708.546875 C 1141.027344 709.390625 1142.710938 710.535156 1141.714844 712.296875 Z M 1141.714844 712.296875 " fill-opacity="1" fill-rule="nonzero"/></g><path fill="#f28292" d="M 997.464844 668.394531 L 997.160156 668.242188 C 997.109375 668.320312 997.039062 668.367188 996.945312 668.382812 C 996.855469 668.398438 996.769531 668.378906 996.699219 668.316406 L 996.085938 667.933594 C 996.011719 667.933594 995.933594 668.011719 995.78125 667.933594 L 993.5625 667.324219 L 990.425781 667.324219 C 980.5625 667.550781 970.695312 668.011719 960.828125 668.621094 C 960.722656 668.621094 960.632812 668.585938 960.558594 668.511719 C 960.480469 668.4375 960.445312 668.347656 960.445312 668.242188 C 960.445312 668.136719 960.480469 668.042969 960.558594 667.96875 C 960.632812 667.894531 960.722656 667.859375 960.828125 667.859375 L 969.394531 667.324219 L 984.386719 666.710938 L 990.199219 666.558594 L 987.0625 665.945312 C 981.792969 665.054688 976.488281 664.773438 971.152344 665.105469 C 968.511719 665.230469 965.882812 665.511719 963.273438 665.945312 C 961.363281 666.328125 959.144531 666.863281 958.152344 668.699219 C 957.921875 669.160156 957.234375 668.777344 957.460938 668.316406 C 958.609375 666.25 961.058594 665.5625 963.273438 665.179688 C 968.339844 664.355469 973.4375 664.0625 978.566406 664.292969 C 983.695312 664.523438 988.746094 665.28125 993.714844 666.558594 L 995.015625 666.710938 C 993.871094 665.027344 993.640625 662.734375 993.714844 660.746094 C 993.871094 657.148438 994.175781 653.632812 994.40625 650.035156 C 994.40625 649.929688 994.441406 649.839844 994.515625 649.765625 C 994.589844 649.691406 994.679688 649.65625 994.789062 649.65625 C 994.894531 649.65625 994.984375 649.691406 995.058594 649.765625 C 995.132812 649.839844 995.167969 649.929688 995.167969 650.035156 L 994.480469 659.980469 C 994.40625 662.351562 994.480469 665.257812 996.242188 667.015625 C 996.816406 667.152344 997.351562 667.382812 997.847656 667.703125 C 998.304688 667.933594 997.921875 668.621094 997.464844 668.394531 Z M 1018.039062 656.003906 C 1018.835938 654.378906 1019.472656 652.699219 1019.949219 650.953125 C 1020.488281 649.132812 1020.792969 647.269531 1020.867188 645.371094 C 1020.867188 645.265625 1020.832031 645.175781 1020.757812 645.101562 C 1020.683594 645.027344 1020.59375 644.988281 1020.488281 644.988281 C 1020.378906 644.988281 1020.289062 645.027344 1020.214844 645.101562 C 1020.140625 645.175781 1020.105469 645.265625 1020.105469 645.371094 C 1019.957031 647.316406 1019.628906 649.226562 1019.109375 651.109375 C 1018.535156 652.886719 1017.84375 654.621094 1017.042969 656.308594 C 1015.46875 659.675781 1014.703125 663.222656 1014.75 666.941406 C 1014.75 667.046875 1014.789062 667.136719 1014.863281 667.210938 C 1014.9375 667.285156 1015.027344 667.324219 1015.132812 667.324219 C 1015.238281 667.324219 1015.328125 667.285156 1015.402344 667.210938 C 1015.476562 667.136719 1015.515625 667.046875 1015.515625 666.941406 C 1015.449219 665.023438 1015.652344 663.136719 1016.125 661.28125 C 1016.546875 659.441406 1017.183594 657.683594 1018.039062 656.003906 Z M 1066.914062 663.191406 C 1060.539062 665.15625 1054.039062 666.503906 1047.410156 667.246094 C 1040.648438 668.0625 1033.867188 668.34375 1027.0625 668.085938 C 1023.351562 667.945312 1019.652344 667.613281 1015.972656 667.09375 C 1015.515625 667.015625 1015.285156 667.78125 1015.820312 667.859375 C 1022.445312 668.765625 1029.101562 669.097656 1035.785156 668.851562 C 1042.652344 668.6875 1049.460938 667.949219 1056.207031 666.632812 C 1059.875 665.941406 1063.496094 665.046875 1067.066406 663.957031 C 1067.601562 663.804688 1067.371094 663.039062 1066.914062 663.191406 Z M 1066.914062 663.191406 " fill-opacity="1" fill-rule="nonzero"/></svg>